<svg id="Groupe_1" data-name="Groupe 1" xmlns="http://www.w3.org/2000/svg" width="300" height="250" viewBox="0 0 300 250">
  <ellipse id="Ellipse_1" data-name="Ellipse 1" cx="16.338" cy="19.319" rx="16.338" ry="19.319" transform="translate(136.878 210.832)" fill="#6c63ff"/>
  <path id="Tracé_1" data-name="Tracé 1" d="M508.217,427.954c9.14-3.246,18.857-6.631,26.106-14.347,6.477-6.9,10.85-17.425,8.167-27.766-2.678-10.32-10.7-17.2-18.981-20.623a67.81,67.81,0,0,0-14.523-3.864c-5.34-.92-10.7-1.673-16.064-2.4a626.468,626.468,0,0,0-65.366-5.38c-10.792-.321-21.581-.314-32.374-.128-9.639.166-19.791.161-28.733-4.683-6.954-3.767-13.265-10.621-15.2-19.627-2.237-10.4,1.889-20.984,7.807-28.513a67.072,67.072,0,0,1,10.526-10.381c4.08-3.332,8.3-6.428,12.616-9.319a164.446,164.446,0,0,1,26.555-14.476c4.527-1.946,9.121-3.626,13.755-5.175a105.149,105.149,0,0,0,11.62-4.4c7.311-3.445,14.264-9.282,16.123-18.849,1.762-9.068-1.209-18.912-6.416-25.649-6.025-7.794-15.109-11.21-23.817-11.763-9.777-.621-19.329,2.273-28.519,5.945-9.8,3.917-19.392,8.42-29.4,11.593a170.724,170.724,0,0,1-30.259,6.651c-5,.63-10.154,1.341-15.186.859-4.217-.4-8.412-1.87-11.519-5.409a14.887,14.887,0,0,1-3.706-11.605c.1-.8,1.126-.459,1.027.335-.664,5.357,2.415,10.293,6.21,12.822,4.386,2.922,9.722,2.926,14.605,2.592A163.625,163.625,0,0,0,354.7,219.02a224.922,224.922,0,0,0,29.729-10.852c9.29-3.978,18.787-7.86,28.712-8.722,8.611-.748,17.67.736,25.172,6.057A33.23,33.23,0,0,1,451.3,226.93c1.51,8.746-.581,17.549-6.18,23.652-5.8,6.319-13.745,9.021-21.152,11.509a175.19,175.19,0,0,0-27.487,11.635,167.393,167.393,0,0,0-25.856,17.189c-7.9,6.385-15.7,14.418-18.2,25.808a27.818,27.818,0,0,0,1,15.944,28.48,28.48,0,0,0,7.907,11.1c7.928,6.9,17.919,8.314,27.495,8.455,10.755.158,21.51-.271,32.269-.062a626.6,626.6,0,0,1,65.641,4.734q8.207,1.027,16.394,2.271a127.308,127.308,0,0,1,14.661,2.812c8.582,2.355,16.932,6.884,22.266,15.488a28.61,28.61,0,0,1,4.243,12.787,29.917,29.917,0,0,1-2.479,13.994c-4.1,9.53-11.768,15.591-19.915,19.573a126.877,126.877,0,0,1-13.408,5.353c-.658.234-.939-.982-.283-1.215Z" transform="translate(-257.399 -179.57)" fill="#f2f2f2"/>
  <ellipse id="Ellipse_2" data-name="Ellipse 2" cx="8.524" cy="10.08" rx="8.524" ry="10.08" transform="translate(36.189 19.109)" fill="#f2f2f2"/>
  <ellipse id="Ellipse_3" data-name="Ellipse 3" cx="8.524" cy="10.08" rx="8.524" ry="10.08" transform="translate(95.324 38.218)" fill="#f2f2f2"/>
  <ellipse id="Ellipse_4" data-name="Ellipse 4" cx="8.524" cy="10.08" rx="8.524" ry="10.08" transform="translate(145.402)" fill="#f2f2f2"/>
  <ellipse id="Ellipse_5" data-name="Ellipse 5" cx="8.524" cy="10.08" rx="8.524" ry="10.08" transform="translate(176.657 42.838)" fill="#f2f2f2"/>
  <ellipse id="Ellipse_6" data-name="Ellipse 6" cx="8.524" cy="10.08" rx="8.524" ry="10.08" transform="translate(134.392 92.396)" fill="#f2f2f2"/>
  <ellipse id="Ellipse_7" data-name="Ellipse 7" cx="8.524" cy="10.08" rx="8.524" ry="10.08" transform="translate(80.762 116.335)" fill="#f2f2f2"/>
  <ellipse id="Ellipse_8" data-name="Ellipse 8" cx="8.524" cy="10.08" rx="8.524" ry="10.08" transform="translate(137.589 153.714)" fill="#f2f2f2"/>
  <ellipse id="Ellipse_9" data-name="Ellipse 9" cx="8.524" cy="10.08" rx="8.524" ry="10.08" transform="translate(198.677 174.713)" fill="#f2f2f2"/>
  <ellipse id="Ellipse_10" data-name="Ellipse 10" cx="8.524" cy="10.08" rx="8.524" ry="10.08" transform="translate(270.066 170.093)" fill="#f2f2f2"/>
  <path id="Tracé_2" data-name="Tracé 2" d="M519.145,220.371c-25.534.213-46.44,24.75-46.8,54.941,0,.279,0,2.239,0,4.8,0,7.826,5.365,14.171,11.984,14.173h0c6.624,0,12-6.355,11.991-14.191,0-1.747,0-2.954,0-3.028,0-12.895,7.737-23.97,18.442-26.4s21.358,4.459,25.4,16.43.328,25.648-8.85,32.6l0,.006s-17.058,12.986-22.259,30.8h0a46.209,46.209,0,0,0-1.376,11.242c0,1.565.078,15.254.228,26.366.109,7.977,5.61,14.375,12.356,14.373h0a11.486,11.486,0,0,0,8.765-4.312,16.089,16.089,0,0,0,3.593-10.392c-.052-10.176-.08-22.025-.08-22.885,0-10.938,8.924-21.837,16.254-28.944a60.49,60.49,0,0,0,16.955-31.918,42.726,42.726,0,0,0,.888-7.91c0-14.856-5.014-29.1-13.93-39.565S531.708,220.263,519.145,220.371Z" transform="translate(-367.679 -191.81)" fill="#6c63ff"/>
  <path id="Tracé_3" data-name="Tracé 3" d="M477.239,746.25H178.085a.507.507,0,0,1,0-1H477.239a.507.507,0,0,1,0,1Z" transform="translate(-177.662 -496.25)" fill="#3f3d56"/>
  <ellipse id="Ellipse_11" data-name="Ellipse 11" cx="10.655" cy="12.6" rx="10.655" ry="12.6" transform="translate(212.549 89.455)" fill="#2f2e41"/>
  <path id="Tracé_4" data-name="Tracé 4" d="M561.346,554.7h-4.354l-2.072-19.86h6.427Z" transform="translate(-357.831 -310.217)" fill="#a0616a"/>
  <path id="Tracé_5" data-name="Tracé 5" d="M542.4,578.626h8.4v6.252H537.109C537.109,581.425,539.476,578.626,542.4,578.626Z" transform="translate(-346.346 -335.612)" fill="#2f2e41"/>
  <path id="Tracé_6" data-name="Tracé 6" d="M656.346,554.7h-4.354l-2.072-19.86h6.427Z" transform="translate(-419.09 -310.217)" fill="#a0616a"/>
  <path id="Tracé_7" data-name="Tracé 7" d="M637.4,578.626h8.4v6.252H632.109C632.109,581.425,634.476,578.626,637.4,578.626Z" transform="translate(-407.605 -335.612)" fill="#2f2e41"/>
  <ellipse id="Ellipse_12" data-name="Ellipse 12" cx="8.723" cy="10.315" rx="8.723" ry="10.315" transform="translate(212.861 94.097)" fill="#a0616a"/>
  <path id="Tracé_8" data-name="Tracé 8" d="M759.565,464.122l3.9-10.6A14.958,14.958,0,0,0,761,438.566a12.122,12.122,0,0,0-1.091-1.121,9.643,9.643,0,0,0-11.5-1.508c-.128.067-.252.139-.38.21-.245.139-.486.29-.721.445a13.627,13.627,0,0,0-5.576,10.029l-1.723,17.068c-.433,1.34-15.89,49.722-10.484,86.659a1.738,1.738,0,0,0,1.357,1.541l5.48.882a1.642,1.642,0,0,0,1.779-1.483l9.2-51.83a1.324,1.324,0,0,1,1.176-1.168,1.286,1.286,0,0,1,1.24,1.071l12.992,54.505a1.655,1.655,0,0,0,1.531,1.378,1.553,1.553,0,0,0,.309-.034l6.695-1.525a1.854,1.854,0,0,0,1.289-2.02C771.58,538.694,766.352,473.71,759.565,464.122Z" transform="translate(-532.781 -316.117)" fill="#2f2e41"/>
  <path id="Tracé_9" data-name="Tracé 9" d="M706.058,416.2a4.728,4.728,0,0,0,.952,3.391,3.305,3.305,0,0,0,2.81,1.314l4.876,13.856,3.688-6.465-5.2-12.167a3.57,3.57,0,1,0-7.131.071Z" transform="translate(-518.374 -303.201)" fill="#a0616a"/>
  <path id="Tracé_10" data-name="Tracé 10" d="M792.854,514.526a3.555,3.555,0,0,0,2.567-1.885,4.887,4.887,0,0,0,.426-3.538l10.259-8.836-6.177-2.735-8.8,8.81a4.45,4.45,0,0,0-2.214,5A3.672,3.672,0,0,0,792.854,514.526Z" transform="translate(-571.753 -352.569)" fill="#a0616a"/>
  <path id="Tracé_11" data-name="Tracé 11" d="M730.21,459.062a5.156,5.156,0,0,1-1.171-.137,6.1,6.1,0,0,1-4.243-4.039l-6.831-9.85a2.146,2.146,0,0,1-.341-1.509,1.931,1.931,0,0,1,.735-1.3l4.86-3.558a1.391,1.391,0,0,1,1.214-.231,1.645,1.645,0,0,1,.993.857l4.815,9.38,9.221-8.058a3.134,3.134,0,0,1,4.4,1.216,4.648,4.648,0,0,1-.379,5.32l-9.2,9.927A5.356,5.356,0,0,1,730.21,459.062Z" transform="translate(-525.833 -318.266)" fill="#2f2e41"/>
  <path id="Tracé_12" data-name="Tracé 12" d="M812.505,478.129h-.037a1.518,1.518,0,0,1-1.176-.66l-4.321-5.961a2.135,2.135,0,0,1-.37-1.488,1.956,1.956,0,0,1,.7-1.314l8.091-6.378-7.33-10.421a4.608,4.608,0,0,1,.774-5.26,3.062,3.062,0,0,1,4.513.143l8.909,10.295a7.7,7.7,0,0,1,1.857,6.062,7,7,0,0,1-3.162,5.253l-7.281,9.136a1.5,1.5,0,0,1-1.163.594Z" transform="translate(-583.213 -322.52)" fill="#2f2e41"/>
  <path id="Tracé_13" data-name="Tracé 13" d="M786.546,448.312a1.4,1.4,0,0,1-.207-.016,1.68,1.68,0,0,1-1.318-1.289l-3.247-11.772a1.391,1.391,0,0,1,.566-1.564l.105-.059c.1-.054.19-.107.287-.158a10.1,10.1,0,0,1,4.831-1.27,9.941,9.941,0,0,1,6.1,2.166,1.468,1.468,0,0,1,.32,1.8l-6.091,11.284a1.543,1.543,0,0,1-1.341.873Z" transform="translate(-567.18 -314.667)" fill="#e6e6e6"/>
  <ellipse id="Ellipse_13" data-name="Ellipse 13" cx="3.487" cy="4.123" rx="3.487" ry="4.123" transform="translate(228.118 88.184)" fill="#2f2e41"/>
  <path id="Tracé_14" data-name="Tracé 14" d="M779.346,361.365h0c-5.1,0-9.234,4.889-9.234,10.92v4.62h4.805l2.3-4.62.69,4.62h14.583l-3.907-4.62C788.58,366.254,784.445,361.365,779.346,361.365Z" transform="translate(-559.693 -273.59)" fill="#2f2e41"/>
  <path id="Tracé_15" data-name="Tracé 15" d="M834.809,359.32c.8-2.943,3.265-4.784,5.854-4.366,2.222.439,3.979,2.551,5.025,4.91a54.524,54.524,0,0,1,2.234,7.529c.7,2.531,1.7,5.075,3.478,6.713s4.5,2.082,6.247.4c-.409,3.6-2.719,6.491-5.737,7.174s-6.068-.991-7.574-4.158a20.972,20.972,0,0,1-1.431-6.405,15.818,15.818,0,0,0-1.727-6.275c-1.1-1.8-3.157-2.979-4.9-2.158Z" transform="translate(-601.413 -269.838)" fill="#2f2e41"/>
  <path id="Tracé_16" data-name="Tracé 16" d="M487.4,319.454h0c-6.618,0-11.984-6.344-11.985-14.171,0-2.565,0-4.525,0-4.8a63.362,63.362,0,0,1,5.455-25.161,62.3,62.3,0,0,0-9.007,31.88c0,.279,0,2.239,0,4.8,0,7.826,5.365,14.171,11.984,14.173h0c5.367,0,10.079-4.22,11.539-10.328A10.967,10.967,0,0,1,487.4,319.454Z" transform="translate(-367.374 -223.682)" fill="#3f3d56"/>
  <path id="Tracé_17" data-name="Tracé 17" d="M573.034,282.156c7.459.421,14.268,5.148,18.214,12.644a31.2,31.2,0,0,1,1.554,24.908,30.843,30.843,0,0,0,3.255-28.882c-3.8-9.548-11.984-15.579-20.909-15.417s-16.944,6.485-20.5,16.167c4.56-6.344,11.353-9.824,18.386-9.419Z" transform="translate(-420.756 -223.732)" fill="#3f3d56"/>
  <path id="Tracé_18" data-name="Tracé 18" d="M587.5,511.252h0c-6.749,0-12.248-6.4-12.356-14.376-.15-11.108-.228-24.8-.228-26.362a46.206,46.206,0,0,1,1.376-11.242h0a44.028,44.028,0,0,1,1.951-5.334,49.412,49.412,0,0,0-5.5,12.054h0a46.209,46.209,0,0,0-1.376,11.242c0,1.565.078,15.254.228,26.366.109,7.977,5.61,14.375,12.356,14.373h0c5.49,0,10.323-4.284,11.863-10.517A11.323,11.323,0,0,1,587.5,511.252Z" transform="translate(-431.535 -327.283)" fill="#3f3d56"/>
  <path id="Tracé_19" data-name="Tracé 19" d="M126.539,555.157h4.354l2.072-19.86h-6.427Z" transform="translate(-81.596 -310.481)" fill="#ffb8b8"/>
  <path id="Tracé_20" data-name="Tracé 20" d="M0,0H13.685V6.252h-8.4C2.367,6.252,0,3.453,0,0H0Z" transform="translate(57.694 249.457) rotate(179.997)" fill="#2f2e41"/>
  <path id="Tracé_21" data-name="Tracé 21" d="M82.539,555.157h4.354l2.072-19.86H82.538Z" transform="translate(-53.223 -310.481)" fill="#ffb8b8"/>
  <path id="Tracé_22" data-name="Tracé 22" d="M0,0H13.685V6.252h-8.4C2.367,6.252,0,3.453,0,0H0Z" transform="translate(42.066 249.457) rotate(179.997)" fill="#2f2e41"/>
  <path id="Tracé_23" data-name="Tracé 23" d="M260.339,625.252l-4.253-.265a1.576,1.576,0,0,1-1.153-.656,2.2,2.2,0,0,1-.416-1.431l5.083-66.553,23.409,7.47,2.255-.728-7.053,58.917a1.8,1.8,0,0,1-1.548,1.657l-4.585.253a1.525,1.525,0,0,1-1.249-.553,2.161,2.161,0,0,1-.5-1.461l.831-35.361a.629.629,0,0,0-.489-.668.572.572,0,0,0-.606.517l-8.011,37.3a1.745,1.745,0,0,1-1.623,1.565C260.4,625.255,260.369,625.254,260.339,625.252Z" transform="translate(-227.219 -386.684)" fill="#2f2e41"/>
  <ellipse id="Ellipse_14" data-name="Ellipse 14" cx="8.723" cy="10.315" rx="8.723" ry="10.315" transform="translate(37.002 94.579)" fill="#ffb8b8"/>
  <path id="Tracé_24" data-name="Tracé 24" d="M265.484,451.716l.959,24.471.347,8.9a1.945,1.945,0,0,0,1.092,1.754l22.495,9.636a1.372,1.372,0,0,0,.568.118,1.535,1.535,0,0,0,1.189-.589,2.158,2.158,0,0,0,.467-1.421l-.922-44c-.125-7.447-4.709-13.737-10.919-14.984-.218-.039-.439-.079-.66-.113a11.666,11.666,0,0,0-10.358,3.965A17.175,17.175,0,0,0,265.484,451.716Z" transform="translate(-234.283 -316.516)" fill="#ccc"/>
  <path id="Tracé_25" data-name="Tracé 25" d="M348.543,543.183a3.923,3.923,0,0,1-2.312-2.631,4.89,4.89,0,0,1,.4-3.764l-7.628-11.995,6.583-.482,6.235,11.464a4.77,4.77,0,0,1,.984,5.33A3.4,3.4,0,0,1,348.543,543.183Z" transform="translate(-281.703 -368.102)" fill="#ffb8b8"/>
  <path id="Tracé_26" data-name="Tracé 26" d="M327.621,492.645a1.824,1.824,0,0,1-.9-1.058l-11.493-32.378c-.946-2.666.114-5.733,2.369-6.852s4.849.135,5.795,2.8l11.493,32.379a2.109,2.109,0,0,1-.888,2.57l-5.1,2.532a1.416,1.416,0,0,1-1.271.007Z" transform="translate(-266.145 -326.129)" fill="#ccc"/>
  <path id="Tracé_27" data-name="Tracé 27" d="M298.151,510.1,309.19,485.1a1.611,1.611,0,0,1,2.335-.867l16.022,9.895a2.245,2.245,0,0,1,.733,2.761l-11.038,24.993a1.611,1.611,0,0,1-2.335.867l-16.022-9.895A2.245,2.245,0,0,1,298.151,510.1Z" transform="translate(-255.231 -344.724)" fill="#3f3d56"/>
  <path id="Tracé_28" data-name="Tracé 28" d="M290.11,504.9a3.885,3.885,0,0,0-2.358-2.573,3.143,3.143,0,0,0-3.153.7l-10.576-8.3-.018,7.8,10.046,6.683a3.214,3.214,0,0,0,4.558.847,4.658,4.658,0,0,0,1.5-5.159Z" transform="translate(-239.787 -350.943)" fill="#ffb8b8"/>
  <path id="Tracé_29" data-name="Tracé 29" d="M258.463,477.254l-8.644-8.1a6.817,6.817,0,0,1-3.917-4.837,8.247,8.247,0,0,1,1.138-6.56l7.848-12.162a3.222,3.222,0,0,1,4.621-.95,4.661,4.661,0,0,1,1.463,5.269l-6.21,12.012,9.126,5.118a1.909,1.909,0,0,1,.883,1.227,2.273,2.273,0,0,1-.191,1.6l-3.684,6.894a1.679,1.679,0,0,1-1.125.887l-.027.005A1.485,1.485,0,0,1,258.463,477.254Z" transform="translate(-221.512 -321.545)" fill="#ccc"/>
  <path id="Tracé_30" data-name="Tracé 30" d="M280.059,388.969a1.038,1.038,0,0,1,.084-.783.747.747,0,0,1,.575-.4,1.67,1.67,0,0,1,1.235.72,5.252,5.252,0,0,0,1.091,1.108.847.847,0,0,0,1.235-.264,2.373,2.373,0,0,0-.066-1.576,18.093,18.093,0,0,1-.579-4.1,8.293,8.293,0,0,1,.874-4.388,4.6,4.6,0,0,1,4.207-2.115,24.368,24.368,0,0,1,4.726.99,1.4,1.4,0,0,0,1.546-.307,2.741,2.741,0,0,0,.08-2.1,16.13,16.13,0,0,0-1.87-5.272,6.544,6.544,0,0,0-4.284-2.852,8.8,8.8,0,0,0-4.781.642,13.046,13.046,0,0,0-6.28,5.174,13.992,13.992,0,0,0-1.981,9.072,11.746,11.746,0,0,0,3.511,7.079Z" transform="translate(-240.926 -277.167)" fill="#2f2e41"/>
  <path id="Tracé_31" data-name="Tracé 31" d="M575.742,693.685c-4.705-2.423-8.174-7.321-9.366-13.224a22.029,22.029,0,0,1,3.3-16.8c-5.107,4.41-7.6,11.909-6.409,19.252s5.867,13.211,11.993,15.065,12.607-.641,16.638-6.4a14.261,14.261,0,0,1-16.16,2.11Z" transform="translate(-426.125 -448.927)" fill="#3f3d56"/>
</svg>
