<svg xmlns="http://www.w3.org/2000/svg" width="300" height="250" viewBox="0 0 300 250">
  <g id="Groupe_2" data-name="Groupe 2" transform="translate(0 0.014)">
    <path id="Tracé_32" data-name="Tracé 32" d="M217.945,752.813a11.061,11.061,0,0,0,4.364-9.821A9.433,9.433,0,0,0,215,735.174c-3.856-.779-8.252,1.377-9.424,4.906-.645-6.8-1.387-13.892-5.249-19.685a22.436,22.436,0,0,0-16.115-9.671c-6.563-.672-13.473,1.865-17.567,6.717a16.1,16.1,0,0,0-2.229,17.478c2.112,4.1,6,7.158,10.079,9.643,13.006,7.927,29.139,10.606,44.49,8.489Z" transform="translate(-159.288 -503.825)" fill="#f2f2f2"/>
    <path id="Tracé_33" data-name="Tracé 33" d="M191.526,717.039a103.4,103.4,0,0,1,14.832,13.8,101.021,101.021,0,0,1,11.7,16.216,97.974,97.974,0,0,1,5.009,9.935c.3.691-.9.991-1.194.308a96.987,96.987,0,0,0-9.653-17.108,101.125,101.125,0,0,0-12.946-14.981,103.931,103.931,0,0,0-8.62-7.346c-.618-.471.262-1.287.875-.82Z" transform="translate(-177.679 -508.136)" fill="#fff"/>
    <path id="Tracé_34" data-name="Tracé 34" d="M884.729,361.576H843.508a2.278,2.278,0,0,1-2.346-2.2v-4.633a2.278,2.278,0,0,1,2.346-2.2h41.221a2.278,2.278,0,0,1,2.346,2.2v4.633A2.278,2.278,0,0,1,884.729,361.576Z" transform="translate(-610.352 -258.149)" fill="#6c63ff"/>
    <path id="Tracé_35" data-name="Tracé 35" d="M834.937,325.161,817.37,310.324a2.289,2.289,0,0,0-2.787-.1l-38.445,11.89a2.017,2.017,0,0,0-1.385,2.577l1.551,4.4a2.081,2.081,0,0,0,1.088,1.184,2.308,2.308,0,0,0,1.663.114L814.32,319.48l14.387,12.152a2.247,2.247,0,0,0,1.456.525l.115,0a2.225,2.225,0,0,0,1.505-.671l3.312-3.441A1.953,1.953,0,0,0,834.937,325.161Z" transform="translate(-566.122 -228.817)" fill="#6c63ff"/>
    <path id="Tracé_36" data-name="Tracé 36" d="M370.071,712.208a1.952,1.952,0,0,0-2.011,1.883V752.7a1.952,1.952,0,0,0,2.011,1.883h4.946a1.952,1.952,0,0,0,2.01-1.883V714.091a1.952,1.952,0,0,0-2.01-1.883Z" transform="translate(-295.781 -504.917)" fill="#6c63ff"/>
    <path id="Tracé_37" data-name="Tracé 37" d="M405.545,754.214H400.6a2.278,2.278,0,0,1-2.346-2.2V713.405a2.278,2.278,0,0,1,2.346-2.2h4.946a2.278,2.278,0,0,1,2.346,2.2v38.612A2.278,2.278,0,0,1,405.545,754.214Z" transform="translate(-315.856 -504.231)" fill="#6c63ff"/>
    <path id="Tracé_38" data-name="Tracé 38" d="M384.8,723.124s1.869,15.739-17,15.2-11.525-16-11.525-16,3.942-2.9,13.907-.1S384.8,723.124,384.8,723.124Z" transform="translate(-287.011 -510.957)" fill="#ccc"/>
    <path id="Tracé_39" data-name="Tracé 39" d="M410.409,579.731a4.79,4.79,0,0,1-4.621-3.209,4.373,4.373,0,0,1,1.954-5.068l32.312-20.032a2.444,2.444,0,0,1,3.251.62l2.73,3.863a2.116,2.116,0,0,1-.661,3.045l-32.312,20.032A5.027,5.027,0,0,1,410.409,579.731Z" transform="translate(-320.73 -394.349)" fill="#6c63ff"/>
    <ellipse id="Ellipse_15" data-name="Ellipse 15" cx="17.089" cy="16.008" rx="17.089" ry="16.008" transform="translate(66.723 134.822)" fill="#6c63ff"/>
    <path id="Tracé_40" data-name="Tracé 40" d="M402.478,530.378a6.5,6.5,0,0,0,3.549-.792,2.509,2.509,0,0,0,1.072-1.906,1.666,1.666,0,0,0-.623-1.41,2.5,2.5,0,0,0-2.238-.3l.9-6.192-.664-.085-1.063,7.279.554-.238a2.148,2.148,0,0,1,2.074.017,1.069,1.069,0,0,1,.386.909,1.9,1.9,0,0,1-.8,1.421,5.848,5.848,0,0,1-3.172.671Z" transform="translate(-318.653 -372.828)" fill="#2f2e41"/>
    <rect id="Rectangle_7" data-name="Rectangle 7" width="3.609" height="0.628" transform="translate(89.773 147.482)" fill="#2f2e41"/>
    <rect id="Rectangle_8" data-name="Rectangle 8" width="3.609" height="0.628" transform="translate(78.38 147.482)" fill="#2f2e41"/>
    <path id="Tracé_41" data-name="Tracé 41" d="M350.916,642.291S349.44,595.3,370.1,598.523s12.05,48.605,12.05,48.605-4.427,8.293-15.247-.921S350.916,642.291,350.916,642.291Z" transform="translate(-284.366 -426.807)" fill="#2f2e41"/>
    <path id="Tracé_42" data-name="Tracé 42" d="M340.97,466.5c3.325-2.115,7.522-.678,10.753.831,3.138,1.466,6.674,3.331,10.224,1.919a4.05,4.05,0,0,0,2.709-3.073c.233-1.719-.876-3.328-2.111-4.5a15.5,15.5,0,0,0-4.613-2.848,22.648,22.648,0,0,0-5.25-1.5,23.853,23.853,0,0,0-19.965,5.879,22.873,22.873,0,0,0-7.179,18.228,17.241,17.241,0,0,0,3.932,9.988,13.412,13.412,0,0,0,9.36,4.621,11.191,11.191,0,0,0,2.668-.2c.631-.126.9.781.267.908a13.822,13.822,0,0,1-10.762-2.592,16.349,16.349,0,0,1-5.979-9.533,23.668,23.668,0,0,1,13.859-26.564,25.74,25.74,0,0,1,11.29-1.941,23.564,23.564,0,0,1,10.883,3.23c2.926,1.771,6.223,5.525,3.837,8.847a6.3,6.3,0,0,1-3.911,2.31,10.211,10.211,0,0,1-5.269-.43c-3.822-1.264-7.357-4.089-11.635-3.661a5.917,5.917,0,0,0-2.6.89.479.479,0,0,1-.507-.813Z" transform="translate(-266.796 -329.19)" fill="#2f2e41"/>
    <path id="Tracé_43" data-name="Tracé 43" d="M805.2,222.675a4.249,4.249,0,0,1-2.063-4.438,4.5,4.5,0,0,1,3.588-3.484l37.861-7.72a2.185,2.185,0,0,1,2.591,1.56l-.164.033.164-.033,1.052,4.527a2.044,2.044,0,0,1-1.665,2.428l-37.861,7.72a5.021,5.021,0,0,1-.5.076,4.864,4.864,0,0,1-3.006-.667Z" transform="translate(-585.019 -158.276)" fill="#6c63ff"/>
    <path id="Tracé_44" data-name="Tracé 44" d="M799.906,224.251h0q-.034-.126-.06-.255a5.118,5.118,0,0,1,1.6-4.554A10.491,10.491,0,0,1,806.9,216.6l17.261-3.537a2.3,2.3,0,0,1,1.666.291,2.039,2.039,0,0,1,.939,1.322l1.506,7.431a2.037,2.037,0,0,1-1.674,2.374l-17.37,3.56a11.89,11.89,0,0,1-2.385.246C803.422,228.281,800.572,226.72,799.906,224.251Z" transform="translate(-582.825 -162.41)" fill="#2f2e41"/>
    <ellipse id="Ellipse_16" data-name="Ellipse 16" cx="17.089" cy="16.008" rx="17.089" ry="16.008" transform="translate(203.013 13.198)" fill="#6c63ff"/>
    <path id="Tracé_45" data-name="Tracé 45" d="M852.206,139.9a6.5,6.5,0,0,0,3.549-.792,2.509,2.509,0,0,0,1.072-1.906,1.666,1.666,0,0,0-.623-1.41,2.5,2.5,0,0,0-2.238-.3l.9-6.192-.664-.085-1.063,7.279.555-.238a2.147,2.147,0,0,1,2.073.017,1.068,1.068,0,0,1,.386.909,1.9,1.9,0,0,1-.8,1.421,5.848,5.848,0,0,1-3.172.671Z" transform="translate(-617.682 -104.912)" fill="#2f2e41"/>
    <rect id="Rectangle_9" data-name="Rectangle 9" width="3.609" height="0.628" transform="translate(229.078 24.916)" fill="#2f2e41"/>
    <path id="Tracé_46" data-name="Tracé 46" d="M705.833,64.92a13.017,13.017,0,0,0-5.525-9.694,14.512,14.512,0,0,0-11.733-2.1,13.342,13.342,0,0,0-9.008,7.2,12.5,12.5,0,0,0-1.21,5.553,14.261,14.261,0,0,0,1.619,5.985c1.008,2.057,2.279,3.986,3.382,6A46.292,46.292,0,0,1,686.166,84a45.713,45.713,0,0,1,2.789,13.3c.41,7.147-.32,17.582-8.933,20.325a22.453,22.453,0,0,1-6.85.822,29.942,29.942,0,0,1-7.178-.788c-4.066-1.017-7.927-3.406-9.659-7.116a9.422,9.422,0,0,1-.8-2.69c-.036-.254.257-.468.5-.471a.5.5,0,0,1,.5.471c.561,3.954,4.079,6.987,7.9,8.35a24.04,24.04,0,0,0,6.948,1.259,27.39,27.39,0,0,0,7.125-.414,10.508,10.508,0,0,0,5.366-2.857,12.785,12.785,0,0,0,2.8-4.747,31.575,31.575,0,0,0,1.263-12.213,44.953,44.953,0,0,0-5.8-19.508c-1.12-1.973-2.364-3.891-3.307-5.947a14.711,14.711,0,0,1-1.489-6.012,13.43,13.43,0,0,1,1.2-5.585,14.181,14.181,0,0,1,8.649-7.646,15.867,15.867,0,0,1,12.068.926,14.407,14.407,0,0,1,7.122,8.7,12.828,12.828,0,0,1,.45,2.754c.033.606-.972.6-1.005,0Z" transform="translate(-486.927 -51.77)" fill="#2f2e41"/>
    <path id="Tracé_47" data-name="Tracé 47" d="M778.71,79.15a7.258,7.258,0,0,0-2.633-4.5,8.108,8.108,0,0,0-5.427-1.687.471.471,0,1,1,0-.942A8.626,8.626,0,0,1,779.68,78.9C779.776,79.492,778.808,79.748,778.71,79.15Z" transform="translate(-563.146 -65.669)" fill="#2f2e41"/>
    <path id="Tracé_48" data-name="Tracé 48" d="M789.175,86.738a1.7,1.7,0,0,1,1.172-2.18l4.773-1.476a1.873,1.873,0,0,1,2.328,1.1,1.7,1.7,0,0,1-1.172,2.18L791.5,87.836a1.872,1.872,0,0,1-2.328-1.1Z" transform="translate(-575.723 -73.203)" fill="#2f2e41"/>
    <path id="Tracé_49" data-name="Tracé 49" d="M897.951,143.876a1.633,1.633,0,0,0-1.282,1.16,1.514,1.514,0,0,0,.556,1.586l7.376,5.74a1.037,1.037,0,0,1,.262.307.91.91,0,0,1,.1.379l.46,10.528a1.565,1.565,0,0,0,1.29,1.466l.013,0a1.678,1.678,0,0,0,1.838-.777l2.661-4.545a1.023,1.023,0,0,1,.9-.484,1.006,1.006,0,0,1,.715.3L925.609,172.3a1.732,1.732,0,0,0,1.464.479,1.679,1.679,0,0,0,1.254-.85l18.72-35.083a1.489,1.489,0,0,0-.171-1.663,1.737,1.737,0,0,0-1.674-.578l-.606.119Zm-.3,2.264a.909.909,0,0,1-.332-.953.981.981,0,0,1,.77-.7l46.633-9.151.621-.122a1.044,1.044,0,0,1,1,.348.9.9,0,0,1,.106,1l-18.72,35.083a1,1,0,0,1-.754.509,1.046,1.046,0,0,1-.878-.287l-12.767-12.761a1.6,1.6,0,0,0-.435-.315l32.441-22.045a.605.605,0,0,0,.221-.776.685.685,0,0,0-.773-.346.61.61,0,0,0-.108.035l-39.389,16.47a1.6,1.6,0,0,0-.259-.248l-7.376-5.74Z" transform="translate(-647.226 -108.589)" fill="#ccc"/>
    <path id="Tracé_50" data-name="Tracé 50" d="M897.951,143.876a1.633,1.633,0,0,0-1.282,1.16,1.514,1.514,0,0,0,.556,1.586l7.376,5.74a1.037,1.037,0,0,1,.262.307.91.91,0,0,1,.1.379l.46,10.528a1.565,1.565,0,0,0,1.29,1.466l.013,0a1.678,1.678,0,0,0,1.838-.777l2.661-4.545a1.023,1.023,0,0,1,.9-.484,1.006,1.006,0,0,1,.715.3L925.609,172.3a1.732,1.732,0,0,0,1.464.479,1.679,1.679,0,0,0,1.254-.85l18.72-35.083a1.489,1.489,0,0,0-.171-1.663,1.737,1.737,0,0,0-1.674-.578l-.606.119Zm-.3,2.264a.909.909,0,0,1-.332-.953.981.981,0,0,1,.77-.7l46.633-9.151.621-.122a1.044,1.044,0,0,1,1,.348.9.9,0,0,1,.106,1l-18.72,35.083a1,1,0,0,1-.754.509,1.046,1.046,0,0,1-.878-.287l-12.767-12.761a1.6,1.6,0,0,0-.435-.315,1.719,1.719,0,0,0-.76-.181c-.037,0-.076,0-.114,0h0a1.687,1.687,0,0,0-1.379.81l-2.661,4.548a1,1,0,0,1-1.106.463h-.007a.929.929,0,0,1-.773-.879l-.46-10.528a1.4,1.4,0,0,0-.051-.329v0a1.517,1.517,0,0,0-.3-.562,1.6,1.6,0,0,0-.259-.248l-7.376-5.74Z" transform="translate(-647.226 -108.589)" fill="#3f3d56"/>
    <path id="Tracé_51" data-name="Tracé 51" d="M922.189,154.393l39.389-16.47a.612.612,0,0,1,.108-.035.685.685,0,0,1,.773.346.605.605,0,0,1-.221.776L929.8,161.055l-.572.39-.392-.508.087-.062h0L961.843,138.5l-39.358,16.454v0l-.172.07-.273-.573Z" transform="translate(-664.128 -110.853)" fill="#3f3d56"/>
    <path id="Tracé_52" data-name="Tracé 52" d="M771.963,349.73a1.79,1.79,0,0,0-1.843,1.726v6.278a1.79,1.79,0,0,0,1.843,1.726h21.446a1.79,1.79,0,0,0,1.843-1.726v-6.278a1.79,1.79,0,0,0-1.843-1.726Z" transform="translate(-563.115 -256.215)" fill="#2f2e41"/>
    <path id="Tracé_53" data-name="Tracé 53" d="M765.778,226.633a15.123,15.123,0,0,0-.552,8.644c1.7,7.827,1.07,17.079-.605,26.966a1.81,1.81,0,0,0,1.728,1.883h26.2a1.81,1.81,0,0,0,1.727-1.883V232.895c0-8.673-6.294-15.77-14.166-16.146-.219-.013-.44-.019-.662-.019C773.307,216.73,768.026,220.82,765.778,226.633Z" transform="translate(-559.458 -164.961)" fill="#2f2e41"/>
    <path id="Tracé_54" data-name="Tracé 54" d="M792.976,280.769v-36.3a4.661,4.661,0,0,1,9.3,0v36.3a2.115,2.115,0,0,1-2.178,2.04h-4.946a2.115,2.115,0,0,1-2.178-2.04Z" transform="translate(-578.312 -181.007)" fill="#6c63ff"/>
    <path id="Tracé_55" data-name="Tracé 55" d="M798.637,247.408l-7.03-.29a2.1,2.1,0,0,1-2.08-2.128l.494-10.5a5.563,5.563,0,0,1,5.942-5.1,5.487,5.487,0,0,1,5.44,5.566l-.494,10.5a2.12,2.12,0,0,1-2.173,1.95Z" transform="translate(-576.017 -173.644)" fill="#2f2e41"/>
    <ellipse id="Ellipse_17" data-name="Ellipse 17" cx="1.508" cy="4.551" rx="1.508" ry="4.551" transform="translate(233.31 71.386)" fill="#2f2e41"/>
    <ellipse id="Ellipse_18" data-name="Ellipse 18" cx="8.377" cy="7.847" rx="8.377" ry="7.847" transform="translate(143.803 116.899)" fill="#ccc"/>
    <path id="Tracé_56" data-name="Tracé 56" d="M720.752,463.252H656.415a2.516,2.516,0,1,1,0-5.022h64.337a2.516,2.516,0,1,1,0,5.022Z" transform="translate(-485.729 -330.659)" fill="#ccc"/>
    <path id="Tracé_57" data-name="Tracé 57" d="M703.327,429.252H656.415a2.516,2.516,0,1,1,0-5.022h46.912a2.516,2.516,0,1,1,0,5.022Z" transform="translate(-485.729 -307.331)" fill="#ccc"/>
    <ellipse id="Ellipse_19" data-name="Ellipse 19" cx="8.377" cy="7.847" rx="8.377" ry="7.847" transform="translate(143.803 146.718)" fill="#ccc"/>
    <path id="Tracé_58" data-name="Tracé 58" d="M720.752,558.252H656.415a2.516,2.516,0,1,1,0-5.022h64.337a2.516,2.516,0,1,1,0,5.022Z" transform="translate(-485.729 -395.84)" fill="#ccc"/>
    <path id="Tracé_59" data-name="Tracé 59" d="M703.327,524.252H656.415a2.516,2.516,0,1,1,0-5.022h46.912a2.516,2.516,0,1,1,0,5.022Z" transform="translate(-485.729 -372.512)" fill="#ccc"/>
    <ellipse id="Ellipse_20" data-name="Ellipse 20" cx="8.377" cy="7.847" rx="8.377" ry="7.847" transform="translate(143.803 176.851)" fill="#ccc"/>
    <path id="Tracé_60" data-name="Tracé 60" d="M720.752,654.252H656.415a2.516,2.516,0,1,1,0-5.022h64.337a2.516,2.516,0,1,1,0,5.022Z" transform="translate(-485.729 -461.707)" fill="#ccc"/>
    <path id="Tracé_61" data-name="Tracé 61" d="M703.327,620.252H656.415a2.516,2.516,0,1,1,0-5.022h46.912a2.516,2.516,0,1,1,0,5.022Z" transform="translate(-485.729 -438.379)" fill="#ccc"/>
    <path id="Tracé_62" data-name="Tracé 62" d="M644.682,483.125H511.317a5.531,5.531,0,0,1-5.7-5.336V384.566a5.531,5.531,0,0,1,5.7-5.336H644.682a5.531,5.531,0,0,1,5.7,5.336v93.223a5.531,5.531,0,0,1-5.7,5.336ZM511.317,379.858a4.881,4.881,0,0,0-5.026,4.708v93.223a4.881,4.881,0,0,0,5.026,4.708H644.682a4.881,4.881,0,0,0,5.026-4.708V384.566a4.881,4.881,0,0,0-5.026-4.708Z" transform="translate(-387.246 -276.455)" fill="#3f3d56"/>
    <ellipse id="Ellipse_21" data-name="Ellipse 21" cx="18.765" cy="17.577" rx="18.765" ry="17.577" transform="translate(101.955 86.767)" fill="#6c63ff"/>
    <path id="Tracé_63" data-name="Tracé 63" d="M494.43,376.371a2.034,2.034,0,0,1-1.171-.364l-.021-.015-4.41-3.163a1.759,1.759,0,0,1-.364-2.573,2.049,2.049,0,0,1,2.747-.341l2.856,2.052,6.75-8.246a2.049,2.049,0,0,1,2.747-.34l-.042.053.043-.053a1.761,1.761,0,0,1,.363,2.573l-7.94,9.7a2.01,2.01,0,0,1-1.559.716Z" transform="translate(-375.57 -265.321)" fill="#fff"/>
    <path id="Tracé_64" data-name="Tracé 64" d="M434.491,667.3a2.455,2.455,0,0,1-.957-.193h0l-35.353-14.856a4.4,4.4,0,0,1-2.424-5.965,4.954,4.954,0,0,1,6.368-2.271l35.353,14.856a2.143,2.143,0,0,1,1.18,2.9L436.634,666a2.365,2.365,0,0,1-2.144,1.3Z" transform="translate(-313.915 -457.859)" fill="#6c63ff"/>
    <path id="Tracé_65" data-name="Tracé 65" d="M280.36,846.858H152.691a.315.315,0,1,1,0-.628H280.36a.315.315,0,1,1,0,.628Z" transform="translate(-152.356 -596.872)" fill="#3f3d56"/>
  </g>
</svg>
