<svg id="Groupe_8" data-name="Groupe 8" xmlns="http://www.w3.org/2000/svg" width="300" height="250" viewBox="0 0 300 250">
  <path id="Tracé_199" data-name="Tracé 199" d="M879.972,724.672c.092,9.74-60.4,10.632-61.552,0C818.328,714.933,878.819,714.041,879.972,724.672Z" transform="translate(-579.972 -482.315)" fill="#e6e6e6"/>
  <path id="Tracé_200" data-name="Tracé 200" d="M617.36,507.569l-4.5,2.488,2.861,9.538,4.5.415,2.452-5.391Z" transform="translate(-364.687 -299.024)" fill="#9f616a"/>
  <path id="Tracé_201" data-name="Tracé 201" d="M658.28,553.994v4.561l6.948-.415-.1-3.757Z" transform="translate(-391.712 -326.375)" fill="#9f616a"/>
  <path id="Tracé_202" data-name="Tracé 202" d="M619.929,374.348l2.452,31.1,7.765,45.613,12.261-1.659-4.087-36.076,1.635-33.173Z" transform="translate(-368.891 -220.54)" fill="#2f2e41"/>
  <path id="Tracé_203" data-name="Tracé 203" d="M882.2,463.6l-29.426.415-3.27,22.807,20.026,9.537,4.9,18.245-24.93,26.953L859.317,554s13.9-19.075,24.113-29.856,5.313-43.54,5.313-43.54Z" transform="translate(-598.471 -333.011)" fill="#2f2e41"/>
  <ellipse id="Ellipse_65" data-name="Ellipse 65" cx="8.991" cy="9.123" rx="8.991" ry="9.123" transform="translate(257.168 53.459)" fill="#9f616a"/>
  <path id="Tracé_204" data-name="Tracé 204" d="M878.777,307.275V316.4l6.13,9.952s9.4-7.049,7.356-8.708-2.452-14.513-2.452-14.513Z" transform="translate(-615.887 -238.473)" fill="#9f616a"/>
  <path id="Tracé_205" data-name="Tracé 205" d="M640.188,183.044l-6.13,7.464,2.452,51.833,19.208-.415,3.27-45.2L654.9,185.117l-2.8-3.87-4.962,7.6Z" transform="translate(-377.299 -106.778)" fill="#d0cde1"/>
  <path id="Tracé_206" data-name="Tracé 206" d="M834.136,370.232l-4.5,17.416,4.5,17.416-7.356,9.952L820.241,383.5s4.9-25.709,5.313-28.612,1.226-3.317,1.226-3.317l3.27.415Z" transform="translate(-581.055 -267.013)" fill="#2f2e41"/>
  <path id="Tracé_207" data-name="Tracé 207" d="M705.714,231.1l2.861,5.391.818,9.123-1.635,10.367,5.721,9.538,5.721-26.124-6.13-33.588h-2.452Z" transform="translate(-419.938 -121.245)" fill="#2f2e41"/>
  <path id="Tracé_208" data-name="Tracé 208" d="M837.111,652.327s-5.722,1.659-7.765,2.073,1.226,8.293,1.226,8.293,2.043,10.781,2.452,12.855,3.27,9.123,6.948,9.952,1.226-14.513,1.226-14.513,1.635-4.976,1.635-6.635-2.452-.829-2.452-.829C833.841,662.693,837.111,652.327,837.111,652.327Z" transform="translate(-586.073 -444.197)" fill="#2f2e41"/>
  <path id="Tracé_209" data-name="Tracé 209" d="M882.734,715.708c.409,2.488-.409,2.488,6.13,3.317s4.9-4.561,4.9-4.561A35.279,35.279,0,0,0,892.134,707c-1.226-3.317-7.765.829-7.765.829S882.326,713.22,882.734,715.708Z" transform="translate(-618.21 -475.649)" fill="#2f2e41"/>
  <path id="Tracé_210" data-name="Tracé 210" d="M879.012,280.173l.213,3.688a42.224,42.224,0,0,0,3.046-12.271c.409-6.22-6.539-7.464-10.626-7.879s-11.035,2.488-11.035,5.805,7.356,2.488,10.217,1.659,4.087,6.22,4.087,6.22l1.635.415Z" transform="translate(-605.077 -215.228)" fill="#2f2e41"/>
  <path id="Tracé_211" data-name="Tracé 211" d="M643.24,188.556l2.412-2.936,6.948,5.805-6.948,4.976Z" transform="translate(-382.763 -109.354)" fill="#d0cde1"/>
  <path id="Tracé_212" data-name="Tracé 212" d="M674.119,185.315l-2.861-3.732-4.9,7.464,6.13,4.561Z" transform="translate(-396.517 -106.976)" fill="#d0cde1"/>
  <path id="Tracé_213" data-name="Tracé 213" d="M843.119,363.254l1.635,15.757-3.27,9.537-2.043,9.123s0,8.708,8.174,9.123,15.121-26.124,15.121-26.124,1.226,5.805,2.043,9.123,14.713,16.587,14.713,16.587,3.27-.415,6.13-7.049-5.722-12.855-5.722-12.855l-2.452-8.708.817-10.781,5.722-28.2-16.961-8.915,1.839,23.843-6.13,18.66-9.2-41.259-3.065,2.281L837.4,338.789Z" transform="translate(-591.265 -254.23)" fill="#2f2e41"/>
  <path id="Tracé_214" data-name="Tracé 214" d="M340.744,342.3c-.808-.006-1.625-.012-2.428-.037l.025-.821c.794.025,1.607.036,2.4.037s1.616-.013,2.425-.04l.026.821C342.377,342.29,341.553,342.3,340.744,342.3Zm-7.3-.347c-1.612-.155-3.241-.365-4.839-.624l.128-.811c1.582.256,3.193.464,4.788.617Zm14.615-.009-.077-.818c1.595-.155,3.205-.365,4.787-.623l.129.811c-1.6.261-3.227.473-4.839.63ZM323.818,340.4c-1.579-.363-3.167-.784-4.721-1.249l.23-.788c1.537.461,3.108.877,4.67,1.236Zm33.873-.02-.18-.8c1.565-.362,3.136-.78,4.669-1.242l.231.788C360.861,339.587,359.273,340.009,357.691,340.375Zm-43.226-2.784c-1.523-.568-3.047-1.193-4.53-1.859l.328-.751c1.467.658,2.974,1.277,4.481,1.838Zm52.575-.032-.28-.771c1.5-.56,3-1.178,4.466-1.838l.329.751C370.073,336.368,368.554,336.993,367.04,337.559Zm-61.506-3.977c-1.434-.759-2.865-1.578-4.255-2.432l.42-.7c1.375.846,2.791,1.656,4.209,2.407Zm70.409-.03-.375-.728c1.415-.751,2.828-1.56,4.2-2.405l.421.7C378.8,331.975,377.374,332.792,375.943,333.552Zm-78.754-5.106c-1.328-.94-2.644-1.937-3.911-2.963l.5-.643c1.254,1.015,2.556,2,3.87,2.931Zm87.083-.029-.464-.673c1.313-.931,2.614-1.918,3.865-2.931l.505.642C386.913,326.479,385.6,327.475,384.272,328.417Zm-94.712-6.144c-1.2-1.105-2.38-2.264-3.507-3.442l.581-.572c1.115,1.166,2.282,2.312,3.47,3.406Zm102.33-.028-.545-.608c1.185-1.092,2.351-2.238,3.468-3.407l.581.571C394.267,319.982,393.088,321.141,391.891,322.244Zm-109.12-7.075c-1.051-1.25-2.076-2.551-3.046-3.865l.648-.493c.96,1.3,1.974,2.588,3.014,3.824Zm115.907-.034-.616-.533c1.04-1.238,2.054-2.526,3.013-3.829l.649.492c-.97,1.316-1.995,2.618-3.046,3.87ZM276.929,307.25c-.886-1.377-1.739-2.8-2.534-4.225l.705-.4c.787,1.412,1.631,2.819,2.507,4.181Zm127.591-.045-.679-.449c.877-1.365,1.721-2.774,2.508-4.189l.706.4C406.259,304.4,405.406,305.827,404.52,307.206Zm-132.387-8.562c-.7-1.479-1.37-3-1.979-4.518l.75-.309c.6,1.5,1.261,3.006,1.958,4.469Zm137.184-.064-.729-.357c.7-1.465,1.356-2.973,1.958-4.483l.751.308C410.688,295.574,410.022,297.1,409.317,298.58Zm-140.854-9.1c-.512-1.561-.98-3.157-1.391-4.745l.783-.209c.406,1.571.869,3.151,1.376,4.694Zm144.521-.087-.769-.258c.5-1.542.965-3.122,1.371-4.7l.784.208C413.96,286.24,413.494,287.837,412.984,289.4Zm-147-9.484c-.309-1.612-.571-3.256-.778-4.886l.8-.105c.2,1.613.464,3.239.77,4.834Zm149.465-.09-.795-.156c.3-1.595.561-3.222.764-4.836l.8.1c-.205,1.631-.465,3.276-.773,4.887ZM264.74,270.1c-.1-1.638-.157-3.3-.159-4.948h.81c0,1.628.055,3.275.158,4.9Zm151.947-.092-.808-.052c.1-1.619.152-3.266.152-4.895v-.18h.81v.177c0,1.649-.052,3.313-.153,4.95Zm-151.15-9.752-.808-.051c.1-1.641.254-3.3.457-4.928l.8.1C265.788,256.991,265.636,258.632,265.537,260.255Zm150.33-.27c-.105-1.624-.263-3.264-.469-4.874l.8-.106c.208,1.627.368,3.284.475,4.926Zm-149.12-9.442-.8-.155c.305-1.613.667-3.237,1.075-4.828l.784.207C267.407,247.341,267.049,248.948,266.747,250.544Zm147.875-.265c-.308-1.6-.672-3.2-1.08-4.773l.783-.209c.413,1.588.78,3.211,1.092,4.824Zm-145.445-9.209-.769-.258c.508-1.561,1.074-3.128,1.682-4.655l.751.308C270.239,237.976,269.679,239.525,269.176,241.069Zm142.984-.256c-.509-1.542-1.073-3.087-1.678-4.592l.75-.31c.611,1.521,1.182,3.083,1.7,4.642Zm-139.367-8.835-.73-.356c.7-1.482,1.462-2.96,2.258-4.394l.706.4C274.24,229.05,273.489,230.512,272.794,231.978Zm135.726-.224c-.7-1.459-1.452-2.916-2.243-4.331l.7-.405c.8,1.43,1.562,2.9,2.266,4.378Zm-130.99-8.316-.679-.448c.883-1.377,1.823-2.745,2.792-4.063l.649.491C279.334,220.723,278.4,222.076,277.531,223.439Zm126.235-.193c-.876-1.358-1.808-2.706-2.771-4.008l.648-.493c.973,1.315,1.915,2.678,2.8,4.051ZM283.3,215.586l-.617-.532c1.049-1.252,2.152-2.486,3.278-3.668l.583.571C285.431,213.126,284.34,214.348,283.3,215.586Zm114.674-.169c-1.041-1.235-2.136-2.453-3.253-3.619l.581-.573c1.129,1.178,2.235,2.409,3.287,3.657Zm-107.968-6.872-.545-.607c1.2-1.108,2.446-2.189,3.709-3.214l.506.642C292.429,206.379,291.194,207.449,290.009,208.545Zm101.241-.149c-1.188-1.091-2.426-2.158-3.681-3.171l.5-.643c1.268,1.024,2.52,2.1,3.72,3.2Zm-93.709-5.967-.465-.673c1.325-.942,2.7-1.853,4.081-2.708l.421.7C300.21,200.6,298.851,201.5,297.54,202.429ZM383.7,202.3c-1.318-.931-2.681-1.829-4.051-2.67l.419-.7c1.384.85,2.762,1.758,4.094,2.7Zm-77.921-4.959-.376-.728c1.432-.762,2.908-1.487,4.386-2.155l.329.751C308.651,195.868,307.191,196.585,305.774,197.339Zm69.659-.113c-1.422-.751-2.888-1.465-4.356-2.122l.327-.752c1.484.664,2.966,1.386,4.4,2.145Zm-60.856-3.863-.281-.771c1.519-.57,3.076-1.1,4.628-1.567l.231.788C317.62,192.278,316.079,192.8,314.577,193.364Zm52.016-.093c-1.505-.559-3.048-1.075-4.584-1.533l.229-.788c1.553.464,3.112.985,4.634,1.55Zm-42.77-2.7-.181-.8c1.576-.366,3.187-.686,4.788-.949l.13.811C326.975,189.889,325.382,190.2,323.823,190.567Zm33.514-.06c-1.562-.357-3.157-.667-4.74-.922l.127-.812c1.6.258,3.213.571,4.791.932ZM333.346,189l-.078-.818c1.608-.158,3.246-.266,4.868-.321l.027.821C336.558,188.736,334.937,188.842,333.346,189Zm14.462-.025c-1.593-.151-3.214-.252-4.817-.3l.024-.821c1.62.049,3.258.151,4.868.3Z" transform="translate(-250.407 -170.56)" fill="#d0cde1"/>
  <ellipse id="Ellipse_66" data-name="Ellipse 66" cx="19.032" cy="19.311" rx="19.032" ry="19.311" transform="translate(68.436)" fill="#6c63ff"/>
  <ellipse id="Ellipse_67" data-name="Ellipse 67" cx="19.032" cy="19.311" rx="19.032" ry="19.311" transform="translate(142.136 52.591)" fill="#6c63ff"/>
  <ellipse id="Ellipse_68" data-name="Ellipse 68" cx="19.032" cy="19.311" rx="19.032" ry="19.311" transform="translate(119.054 133.122)" fill="#6c63ff"/>
  <ellipse id="Ellipse_69" data-name="Ellipse 69" cx="19.032" cy="19.311" rx="19.032" ry="19.311" transform="translate(27.536 136.409)" fill="#6c63ff"/>
  <ellipse id="Ellipse_70" data-name="Ellipse 70" cx="19.032" cy="19.311" rx="19.032" ry="19.311" transform="translate(0 52.591)" fill="#6c63ff"/>
  <path id="Tracé_215" data-name="Tracé 215" d="M441.472,175.775h-6.639a2.293,2.293,0,0,1-2.276-2.309v-6.736a.191.191,0,0,0-.19-.192h-4.363a3.057,3.057,0,0,0-3.035,3.079v15.4a3.057,3.057,0,0,0,3.035,3.079h10.622a3.057,3.057,0,0,0,3.035-3.079v-9.045A.191.191,0,0,0,441.472,175.775Zm-4.363,7.7h-7.587a.77.77,0,0,1,0-1.54h7.587a.77.77,0,0,1,0,1.54Zm0-3.849h-7.587a.77.77,0,0,1,0-1.54h7.587a.77.77,0,0,1,0,1.54Z" transform="translate(-345.848 -158.003)" fill="#fff"/>
  <path id="Tracé_216" data-name="Tracé 216" d="M454.434,174.912l-6.819-6.919a.094.094,0,0,0-.1-.021.1.1,0,0,0-.059.089v6.245a.764.764,0,0,0,.759.77h6.155a.1.1,0,0,0,.087-.059.1.1,0,0,0-.02-.1Z" transform="translate(-359.227 -158.845)" fill="#fff"/>
  <path id="Tracé_217" data-name="Tracé 217" d="M575.9,507.508a1.012,1.012,0,0,0-.989.824,1.027,1.027,0,0,0,.6,1.145,1,1,0,0,0,1.224-.378,1.035,1.035,0,0,0-.126-1.292,1,1,0,0,0-.713-.3Z" transform="translate(-435.057 -358.88)" fill="#fff"/>
  <path id="Tracé_218" data-name="Tracé 218" d="M566.509,496.555v0a.777.777,0,0,0-.572-.587,8.752,8.752,0,0,0-4.861.816,15.606,15.606,0,0,0-5.086,3.268,12.251,12.251,0,0,0-1.117,1.3,4.889,4.889,0,0,0-2.214.361c-2.182.974-2.805,3.468-2.971,4.492a.968.968,0,0,0,.243.814.937.937,0,0,0,.785.3h0l2.431-.269c0,.031.006.06.009.087a1.325,1.325,0,0,0,.374.795l1.186,1.2a1.288,1.288,0,0,0,.783.38l.081.009-.265,2.463v.005a.955.955,0,0,0,.843,1.052q.044,0,.087.005a.945.945,0,0,0,.157-.013c1.015-.166,3.471-.79,4.429-3.016a5.138,5.138,0,0,0,.357-2.237,11.951,11.951,0,0,0,1.283-1.133,15.78,15.78,0,0,0,3.224-5.12A9.266,9.266,0,0,0,566.509,496.555Zm-4.046,6.706a2.2,2.2,0,0,1-3.141,0,2.277,2.277,0,0,1,0-3.187,2.2,2.2,0,0,1,3.141,0l0,0a2.259,2.259,0,0,1,.024,3.161Z" transform="translate(-420.055 -352.019)" fill="#fff"/>
  <path id="Tracé_219" data-name="Tracé 219" d="M555.473,526.166a.6.6,0,0,0-.416.1c-.241.168-.484.333-.729.495a.558.558,0,0,1-.694-.067.578.578,0,0,1-.1-.7l.459-.805a.621.621,0,0,0,.017-.665.6.6,0,0,0-.59-.29,2.3,2.3,0,0,0-1.346.669c-.138.141-.559.568-.785,2.2a13.94,13.94,0,0,0-.122,1.41.61.61,0,0,0,.589.629h.031a13.384,13.384,0,0,0,1.391-.123c1.6-.23,2.026-.657,2.164-.8a2.333,2.333,0,0,0,.657-1.37A.612.612,0,0,0,555.473,526.166Z" transform="translate(-420.942 -368.732)" fill="#fff"/>
  <path id="Tracé_220" data-name="Tracé 220" d="M324.859,538.27H323.48a1.042,1.042,0,0,1-1.034-1.049v-6.3a1.042,1.042,0,0,1,1.034-1.049h1.379a1.042,1.042,0,0,1,1.034,1.049v6.3A1.042,1.042,0,0,1,324.859,538.27Z" transform="translate(-284.84 -372.057)" fill="#fff"/>
  <path id="Tracé_221" data-name="Tracé 221" d="M348.7,532.251h-1.379a1.042,1.042,0,0,1-1.034-1.049V520.708a1.042,1.042,0,0,1,1.034-1.049H348.7a1.042,1.042,0,0,1,1.034,1.049V531.2A1.042,1.042,0,0,1,348.7,532.251Z" transform="translate(-299.024 -366.038)" fill="#fff"/>
  <path id="Tracé_222" data-name="Tracé 222" d="M360.614,525.23h-1.379a1.042,1.042,0,0,1-1.034-1.049V508.79a1.042,1.042,0,0,1,1.034-1.049h1.379a1.042,1.042,0,0,1,1.034,1.049V524.18A1.042,1.042,0,0,1,360.614,525.23Z" transform="translate(-306.117 -359.017)" fill="#fff"/>
  <path id="Tracé_223" data-name="Tracé 223" d="M336.777,520.214H335.4a1.042,1.042,0,0,1-1.034-1.049V500.277a1.042,1.042,0,0,1,1.034-1.049h1.379a1.042,1.042,0,0,1,1.034,1.049v18.888a1.042,1.042,0,0,1-1.034,1.049Z" transform="translate(-291.932 -354.001)" fill="#fff"/>
  <path id="Tracé_224" data-name="Tracé 224" d="M615.185,317.588l-.985-1a1.2,1.2,0,0,0-1.7,0L605.647,323a1.305,1.305,0,0,0-.428.883,1.239,1.239,0,0,0,.348.917l1.472,1.51,0,0a1.21,1.21,0,0,0,.856.361h.045a1.26,1.26,0,0,0,.874-.428l6.365-6.918a1.238,1.238,0,0,0,.007-1.733Z" transform="translate(-453.104 -246.191)" fill="#fff"/>
  <path id="Tracé_225" data-name="Tracé 225" d="M631.951,305.944l-.012-.012-1.293-1.3a.8.8,0,0,0-.577-.24.818.818,0,0,0-.483.159c0-.016,0-.033,0-.047a1.416,1.416,0,0,0-.2-.966,9.829,9.829,0,0,0-.936-1.1l0,0a10.2,10.2,0,0,0-3.272-2.142,5.2,5.2,0,0,0-2-.4,3.783,3.783,0,0,0-2.443.868,4.576,4.576,0,0,0-.535.621.62.62,0,0,0,.01.732.6.6,0,0,0,.694.2,2.78,2.78,0,0,1,.324-.1,2.359,2.359,0,0,1,.7-.044,2.9,2.9,0,0,1,1.347.5,1.98,1.98,0,0,1,.689,1.573,4.1,4.1,0,0,1-.755,1.32.619.619,0,0,0,.055.8l1.3,1.317a.6.6,0,0,0,.83.024c.367-.333.926-.834,1.122-.957a1.394,1.394,0,0,1,.555-.222.715.715,0,0,1,.426.091.048.048,0,0,1-.012.036l-.069.066-.011.011a.832.832,0,0,0,0,1.165l0,0,1.293,1.3a.8.8,0,0,0,.577.239.813.813,0,0,0,.574-.237l2.094-2.1.021-.023a.846.846,0,0,0-.011-1.14Z" transform="translate(-461.953 -236.568)" fill="#fff"/>
  <path id="Tracé_226" data-name="Tracé 226" d="M282.932,309.176a.755.755,0,0,1-.7-.473.775.775,0,0,1,.164-.835l1.732-1.758-1.732-1.758a.774.774,0,0,1,0-1.084.748.748,0,0,1,1.068,0l2.266,2.3a.774.774,0,0,1,0,1.084l-2.266,2.3A.748.748,0,0,1,282.932,309.176Z" transform="translate(-260.878 -238.424)" fill="#fff"/>
  <path id="Tracé_227" data-name="Tracé 227" d="M253.083,314.773a.761.761,0,0,1-.755-.767v-.767a4.589,4.589,0,0,1,4.531-4.6h9.823a.767.767,0,0,1,0,1.533H256.86a3.062,3.062,0,0,0-3.022,3.068v.764a.761.761,0,0,1-.756.767Z" transform="translate(-243.116 -241.721)" fill="#fff"/>
  <path id="Tracé_228" data-name="Tracé 228" d="M264.677,329.7a.748.748,0,0,1-.534-.225l-2.266-2.3a.774.774,0,0,1,0-1.084l2.266-2.3a.748.748,0,0,1,1.068,0,.774.774,0,0,1,0,1.084l-1.732,1.758,1.732,1.758a.775.775,0,0,1,.164.835.755.755,0,0,1-.7.473Z" transform="translate(-248.666 -250.514)" fill="#fff"/>
  <path id="Tracé_229" data-name="Tracé 229" d="M264.276,324.1a.767.767,0,0,1,0-1.533H274.1a3.062,3.062,0,0,0,3.022-3.068v-.764a.756.756,0,1,1,1.511,0v.767a4.589,4.589,0,0,1-4.531,4.6Z" transform="translate(-249.777 -247.216)" fill="#fff"/>
</svg>
