<svg xmlns="http://www.w3.org/2000/svg" width="300" height="250" viewBox="0 0 300 250">
  <g id="Groupe_3" data-name="Groupe 3" transform="translate(0 0)">
    <path id="Tracé_66" data-name="Tracé 66" d="M510.189,308.886H302.17c-1.515,0-2.743-1.855-2.745-4.14V182.391c0-2.285,1.23-4.137,2.745-4.14H510.189c1.515,0,2.743,1.855,2.745,4.14V304.746c0,2.285-1.23,4.137-2.745,4.14ZM302.17,179.171c-1.179,0-2.134,1.442-2.135,3.22V304.746c0,1.777.956,3.218,2.135,3.22H510.189c1.179,0,2.134-1.442,2.135-3.22V182.391c0-1.777-.957-3.218-2.135-3.22Z" transform="translate(-241.104 -178.251)" fill="#3f3d56"/>
    <path id="Tracé_67" data-name="Tracé 67" d="M591.664,318.2H576.472c-.95-12.745,1.146-22.244,0-27.493h15.192a216.016,216.016,0,0,0,0,27.493Z" transform="translate(-433.471 -238.979)" fill="#ff6584"/>
    <path id="Tracé_68" data-name="Tracé 68" d="M123.664,571.2H108.472c-.95-12.745,1.146-22.244,0-27.493h15.192a216.021,216.021,0,0,0,0,27.493Z" transform="translate(-108.217 -375.603)" fill="#ff6584"/>
    <path id="Tracé_69" data-name="Tracé 69" d="M894.664,373.2H879.472c-.95-12.745,1.146-22.244,0-27.493h15.192a216.028,216.028,0,0,0,0,27.493Z" transform="translate(-644.052 -268.68)" fill="#6c63ff"/>
    <path id="Tracé_70" data-name="Tracé 70" d="M336.018,343.763H320.826c.57-10.571,2.406-20.443,0-27.493h15.192A45.116,45.116,0,0,1,336.018,343.763Z" transform="translate(-255.978 -252.784)" fill="#e6e6e6"/>
    <path id="Tracé_71" data-name="Tracé 71" d="M376.018,420.763H360.826c.57-10.571,2.406-20.443,0-27.493h15.192A45.115,45.115,0,0,1,376.018,420.763Z" transform="translate(-283.777 -294.365)" fill="#e6e6e6"/>
    <path id="Tracé_72" data-name="Tracé 72" d="M816.018,279.763H800.826c.57-10.571,2.406-20.443,0-27.493h15.192A45.115,45.115,0,0,1,816.018,279.763Z" transform="translate(-589.572 -218.223)" fill="#6c63ff"/>
    <path id="Tracé_73" data-name="Tracé 73" d="M669.018,357.763H653.826c.57-10.571,2.406-20.443,0-27.493h15.192A45.115,45.115,0,0,1,669.018,357.763Z" transform="translate(-487.409 -260.344)" fill="#e6e6e6"/>
    <path id="Tracé_74" data-name="Tracé 74" d="M416.661,292.849h15.192c.95-10.573-1.146-20.444,0-27.493H416.661A45.116,45.116,0,0,0,416.661,292.849Z" transform="translate(-321.091 -225.289)" fill="#3f3d56"/>
    <path id="Tracé_75" data-name="Tracé 75" d="M389.4,213.091H361.035c-.337,0-.61-.412-.61-.92s.273-.92.61-.92H389.4c.337,0,.61.412.61.92S389.738,213.091,389.4,213.091Z" transform="translate(-283.499 -196.072)" fill="#3f3d56"/>
    <path id="Tracé_76" data-name="Tracé 76" d="M630.4,213.091H602.035c-.337,0-.61-.412-.61-.92s.273-.92.61-.92H630.4c.337,0,.61.412.61.92S630.738,213.091,630.4,213.091Z" transform="translate(-450.991 -196.072)" fill="#3f3d56"/>
    <path id="Tracé_77" data-name="Tracé 77" d="M871.4,213.091H843.035c-.337,0-.61-.412-.61-.92s.273-.92.61-.92H871.4c.337,0,.61.412.61.92S871.738,213.091,871.4,213.091Z" transform="translate(-618.482 -196.072)" fill="#3f3d56"/>
    <rect id="Rectangle_10" data-name="Rectangle 10" width="0.61" height="129.715" transform="translate(128.169 0.46)" fill="#3f3d56"/>
    <rect id="Rectangle_11" data-name="Rectangle 11" width="0.61" height="129.715" transform="translate(201.677 0.46)" fill="#3f3d56"/>
    <ellipse id="Ellipse_22" data-name="Ellipse 22" cx="16.324" cy="24.618" rx="16.324" ry="24.618" transform="translate(32.057 71.129)" fill="#6c63ff"/>
    <path id="Tracé_78" data-name="Tracé 78" d="M243.629,648.3h-4.5c-1.094,0-1.981-1.339-1.983-2.99V588.725c0-1.65.888-2.988,1.983-2.99h4.5c1.094,0,1.981,1.339,1.983,2.99v56.584C245.61,646.96,244.723,648.3,243.629,648.3Z" transform="translate(-197.82 -398.299)" fill="#6c63ff"/>
    <path id="Tracé_79" data-name="Tracé 79" d="M272.821,648.3h-4.5c-1.094,0-1.981-1.339-1.983-2.99V588.725c0-1.65.888-2.988,1.983-2.99h4.5c1.094,0,1.981,1.339,1.983,2.99v56.584C274.8,646.96,273.915,648.3,272.821,648.3Z" transform="translate(-218.108 -398.299)" fill="#6c63ff"/>
    <path id="Tracé_80" data-name="Tracé 80" d="M140.223,523.79a1.392,1.392,0,0,1-.611-.146,2.466,2.466,0,0,1-1.156-1.483l-2.051-6.044a3.83,3.83,0,0,1,.862-4.023l33.4-25.781c.975-.752,2.169-.171,2.668,1.3l2.051,6.044a3.83,3.83,0,0,1-.861,4.024l-33.4,25.781A1.471,1.471,0,0,1,140.223,523.79Z" transform="translate(-127.656 -344.432)" fill="#6c63ff"/>
    <path id="Tracé_81" data-name="Tracé 81" d="M287.478,448.435a1.646,1.646,0,0,1-1.286-.718l-3.421-4.412a4.125,4.125,0,0,1-.218-4.216l24.385-43c.712-1.253,1.963-1.4,2.8-.329h0l3.421,4.413a4.118,4.118,0,0,1,.218,4.215l-24.385,43a1.872,1.872,0,0,1-1.352,1.038A1.328,1.328,0,0,1,287.478,448.435Z" transform="translate(-229.048 -295.32)" fill="#6c63ff"/>
    <path id="Tracé_82" data-name="Tracé 82" d="M216.176,311.424c-.531-7.985-4.011-15.621-9.323-17.7a7.945,7.945,0,0,0-7.77,1.063,14.751,14.751,0,0,0-4.867,7.9,32.423,32.423,0,0,0-1.038,10.723,38.84,38.84,0,0,0,2.476,11.3,62.63,62.63,0,0,0,5.281,10.495c2,3.3,4.271,6.335,5.957,10.04,1.5,3.285,2.7,7.747,1.224,11.529-1.18,2.832-3.349,4.36-5.546,3.907a3.746,3.746,0,0,1-1.509-.755c-.519-.418-.982.773-.462,1.192,1.973,1.589,4.427,1.229,6.292-.558,2.149-2.06,3.108-5.694,2.705-9.452-.459-4.284-2.44-7.962-4.342-11.046-1.987-3.221-4.067-6.3-5.908-9.719a46.093,46.093,0,0,1-4.413-11.232,34.791,34.791,0,0,1-.8-10.758,21.683,21.683,0,0,1,2.788-9.468c1.791-2.784,4.255-4.352,6.828-4.345,2.642-.051,5.2,1.37,7.2,3.99a23.06,23.06,0,0,1,3.974,9.99c.16.956.273,1.928.339,2.909.058.875.974.884.915,0Z" transform="translate(-167.21 -240.299)" fill="#2f2e41"/>
    <path id="Tracé_83" data-name="Tracé 83" d="M253.66,323.987c-.823,0-1.524-.9-1.655-2.13a2.819,2.819,0,0,1,1.131-2.8l4.344-2.163c.88-.438,1.828.282,2.119,1.609a2.955,2.955,0,0,1-1.067,3.2l-4.344,2.163a1.176,1.176,0,0,1-.528.129Z" transform="translate(-208.133 -253.049)" fill="#2f2e41"/>
    <path id="Tracé_84" data-name="Tracé 84" d="M233.415,522.873H182.637a2,2,0,0,1-1.721-1.492,4.33,4.33,0,0,1,0-2.993l25.389-66.319a3.242,3.242,0,0,1,.319-.629l0-.007,0,0a1.867,1.867,0,0,1,1.019-.8c.026-.007.051-.014.077-.019a1.353,1.353,0,0,1,.3-.032h0a1.992,1.992,0,0,1,1.717,1.495l25.389,66.319a4.34,4.34,0,0,1,0,2.99,2.012,2.012,0,0,1-1.717,1.495Z" transform="translate(-158.558 -325.31)" fill="#2f2e41"/>
    <path id="Tracé_85" data-name="Tracé 85" d="M306.624,376.81l-.017-.92a3.754,3.754,0,0,0,2.887-.983,3.433,3.433,0,0,0,.726-2.083,2.1,2.1,0,0,0-.352-1.331c-.5-.636-1.3-.43-1.887-.025l-.5.349.968-10.667.6.125-.823,9.074a1.593,1.593,0,0,1,2.037.442,3.247,3.247,0,0,1,.567,2.066,4.536,4.536,0,0,1-.976,2.794A4.189,4.189,0,0,1,306.624,376.81Z" transform="translate(-246.095 -277.019)" fill="#2f2e41"/>
    <rect id="Rectangle_12" data-name="Rectangle 12" width="3.285" height="0.92" transform="translate(55.572 85.037)" fill="#2f2e41"/>
    <path id="Tracé_86" data-name="Tracé 86" d="M959.926,470.739l-31.5-30.747a3.993,3.993,0,0,1-.587-4.134l2.446-5.7c.6-1.385,1.822-1.781,2.742-.886l31.5,30.747a4,4,0,0,1,.587,4.135l-2.446,5.7c-.6,1.385-1.822,1.781-2.742.885Z" transform="translate(-677.624 -313.548)" fill="#6c63ff"/>
    <path id="Tracé_87" data-name="Tracé 87" d="M1001.924,489.218,988.757,478.13a3.574,3.574,0,0,1-.746-3.639l3.05-9.242a2.19,2.19,0,0,1,1.228-1.46,1.383,1.383,0,0,1,1.528.5l12.544,14.591a3.7,3.7,0,0,1,.543,3.816l-2.447,5.7c-.55,1.28-1.684,1.646-2.533.818Z" transform="translate(-719.529 -332.408)" fill="#ccc"/>
    <ellipse id="Ellipse_23" data-name="Ellipse 23" cx="16.324" cy="24.618" rx="16.324" ry="24.618" transform="translate(267.352 71.949)" fill="#6c63ff"/>
    <path id="Tracé_88" data-name="Tracé 88" d="M1040.2,645.094V588.509c0-1.65.888-2.988,1.983-2.99h4.5c1.094,0,1.981,1.339,1.983,2.99v56.585c0,1.651-.888,2.988-1.983,2.99h-4.5C1041.085,648.081,1040.2,646.744,1040.2,645.094Z" transform="translate(-755.931 -398.182)" fill="#2f2e41"/>
    <path id="Tracé_89" data-name="Tracé 89" d="M1011,645.094V588.509c0-1.65.888-2.988,1.983-2.99h4.5c1.094,0,1.981,1.339,1.983,2.99v56.585c0,1.651-.888,2.988-1.983,2.99h-4.5C1011.892,648.081,1011.005,646.744,1011,645.094Z" transform="translate(-735.643 -398.182)" fill="#2f2e41"/>
    <path id="Tracé_90" data-name="Tracé 90" d="M998.84,519.031V453.5c0-1.65.888-2.988,1.983-2.99h11.495c6.041.01,10.936,7.393,10.943,16.5v52.023c0,1.651-.888,2.988-1.983,2.99h-20.455c-1.094,0-1.981-1.339-1.983-2.99Z" transform="translate(-727.189 -325.273)" fill="#ccc"/>
    <path id="Tracé_91" data-name="Tracé 91" d="M981.956,384.671l.017-.92a3.755,3.755,0,0,1-2.887-.983,3.434,3.434,0,0,1-.726-2.083,2.1,2.1,0,0,1,.352-1.331c.5-.636,1.3-.43,1.887-.025l.5.349-.968-10.667-.6.125.823,9.074a1.593,1.593,0,0,0-2.037.442,3.247,3.247,0,0,0-.567,2.066,4.536,4.536,0,0,0,.976,2.794A4.189,4.189,0,0,0,981.956,384.671Z" transform="translate(-712.529 -281.264)" fill="#2f2e41"/>
    <rect id="Rectangle_13" data-name="Rectangle 13" width="3.285" height="0.92" transform="translate(271.098 88.653)" fill="#2f2e41"/>
    <path id="Tracé_92" data-name="Tracé 92" d="M961.843,527.37l-3.977-3.183a3.864,3.864,0,0,1-.822-4.043l17.588-49.982c.514-1.457,1.713-2.011,2.681-1.239l3.977,3.183a3.863,3.863,0,0,1,.822,4.042L964.523,526.13a2.438,2.438,0,0,1-1.17,1.459A1.4,1.4,0,0,1,961.843,527.37Z" transform="translate(-697.981 -335.031)" fill="#6c63ff"/>
    <path id="Tracé_93" data-name="Tracé 93" d="M1003.849,475.231l-7.712,20.741c-.4,1.344-1.431,1.976-2.34,1.436l-6.369-3.784a2.6,2.6,0,0,1-1.071-1.719,4,4,0,0,1,.2-2.339l8.555-21.028c.475-1.344,1.581-1.856,2.474-1.145l5.5,4.1A3.568,3.568,0,0,1,1003.849,475.231Z" transform="translate(-718.452 -334.219)" fill="#ccc"/>
    <path id="Tracé_94" data-name="Tracé 94" d="M1000.213,337.3c-2.8.66-6.186,1.335-8.291-2.218a6.957,6.957,0,0,1-.762-5.02,6.273,6.273,0,0,1,2.55-3.8c1.642-1.08,3.511-1.014,5.265-.984.247-.013.442-.318.442-.69s-.2-.677-.442-.69a9.793,9.793,0,0,0-5.358.939,7.318,7.318,0,0,0-3.173,4.236c-1.324,4.383,1.121,8.664,3.884,9.731,2.016.779,4.109.3,6.129-.177.58-.137.334-1.467-.243-1.331Z" transform="translate(-721.096 -256.902)" fill="#2f2e41"/>
    <path id="Tracé_95" data-name="Tracé 95" d="M892.661,465.849h15.192c.95-10.573-1.146-20.444,0-27.493H892.661A45.117,45.117,0,0,0,892.661,465.849Z" transform="translate(-651.905 -318.712)" fill="#3f3d56"/>
  </g>
</svg>
