<svg xmlns="http://www.w3.org/2000/svg" width="300" height="250" viewBox="0 0 300 250">
  <g id="Groupe_7" data-name="Groupe 7" transform="translate(0 -0.006)">
    <path id="Tracé_114" data-name="Tracé 114" d="M294.995,343.113c-11.725-3.569-24.122-6.561-36.792-6.252-18.626.455-36.535,8.618-45.368,20.683-7.466,10.224-8.463,22.24-11.722,33.609-4.015,14.007-11.637,27.3-19.772,40.3-4.369,6.982-8.979,14.111-9.738,21.782-1.042,10.652,5.82,21.3,16.64,28.438s25.216,10.942,39.681,11.83c7.7.47,15.74.107,22.593-2.5,7.249-2.748,12.549-7.776,19.827-10.493,6.745-2.516,14.608-2.839,22.174-2.47a130.479,130.479,0,0,1,28.91,4.659c10.547,2.967,20.347,7.238,30.871,10.249s22.288,4.714,33.072,2.293c10.125-2.271,18.156-7.87,25.4-13.543a269.036,269.036,0,0,0,32.445-29.918c6.541-7.141,12.634-14.681,15.555-23.025,5.58-15.954-1.9-34.019-18.623-45.006-13.858-9.107-32.5-13.128-50.756-15.57-16.649-2.25-35.912-2.473-51.214-8.2C323.58,354.494,310.3,347.771,294.995,343.113Z" transform="translate(-160.596 -246.383)" fill="#6c63ff" opacity="0.1"/>
    <ellipse id="Ellipse_45" data-name="Ellipse 45" cx="7.502" cy="0.968" rx="7.502" ry="0.968" transform="translate(276.355 149.163)" fill="#6c63ff" opacity="0.1"/>
    <ellipse id="Ellipse_46" data-name="Ellipse 46" cx="7.502" cy="0.968" rx="7.502" ry="0.968" transform="translate(247.617 151.905)" fill="#6c63ff" opacity="0.1"/>
    <ellipse id="Ellipse_47" data-name="Ellipse 47" cx="7.502" cy="0.968" rx="7.502" ry="0.968" transform="translate(213.767 148.195)" fill="#6c63ff" opacity="0.1"/>
    <ellipse id="Ellipse_48" data-name="Ellipse 48" cx="5.333" cy="0.69" rx="5.333" ry="0.69" transform="translate(261.287 159.986)" fill="#6c63ff" opacity="0.1"/>
    <ellipse id="Ellipse_49" data-name="Ellipse 49" cx="5.333" cy="0.69" rx="5.333" ry="0.69" transform="translate(231.461 159.296)" fill="#6c63ff" opacity="0.1"/>
    <path id="Tracé_115" data-name="Tracé 115" d="M856.871,418.664s10.524-32.44-1.646-45.433c-9.089-9.72-19.438-8.548-24.064-7.354a8.438,8.438,0,0,0-5.518,4.314c-1.623,3.282-1.324,8.609,10.1,14.828,19.123,10.413,20.314,24.7,20.314,24.7Z" transform="translate(-601.914 -266.011)" fill="#6c63ff"/>
    <path id="Tracé_116" data-name="Tracé 116" d="M849.2,382.73s31.02,9.122,24.064,48.187" transform="translate(-618.307 -278.264)" fill="none" stroke="#565987" stroke-miterlimit="10" stroke-width="1"/>
    <path id="Tracé_117" data-name="Tracé 117" d="M898.372,393.44s-4.272,2.708-2.922,6.774" transform="translate(-649.366 -285.705)" fill="none" stroke="#565987" stroke-miterlimit="10" stroke-width="1"/>
    <path id="Tracé_118" data-name="Tracé 118" d="M858.79,397.838a5.6,5.6,0,0,1,5.788-1.12" transform="translate(-624.784 -287.694)" fill="none" stroke="#565987" stroke-miterlimit="10" stroke-width="1"/>
    <path id="Tracé_119" data-name="Tracé 119" d="M896.56,440.6s4.584-2.186,5.768.553" transform="translate(-650.293 -317.893)" fill="none" stroke="#565987" stroke-miterlimit="10" stroke-width="1"/>
    <path id="Tracé_120" data-name="Tracé 120" d="M924.216,457.384s-3.444-.256-3.506,1.291" transform="translate(-666.604 -330.116)" fill="none" stroke="#565987" stroke-miterlimit="10" stroke-width="1"/>
    <path id="Tracé_121" data-name="Tracé 121" d="M885.956,488.923s-12.335-23.578-15.708-23.062c-1.623.244-2.35,1.734-2.685,3.227a8.971,8.971,0,0,0,.672,5.739C869.985,478.6,874.682,485.766,885.956,488.923Z" transform="translate(-630.574 -336.01)" fill="#6c63ff"/>
    <path id="Tracé_122" data-name="Tracé 122" d="M876.53,480.54s12.936,17.64,15.435,18.415" transform="translate(-636.765 -346.214)" fill="none" stroke="#565987" stroke-miterlimit="10" stroke-width="1"/>
    <line id="Ligne_1" data-name="Ligne 1" x2="3.019" transform="translate(238.577 137.08)" fill="none" stroke="#565987" stroke-miterlimit="10" stroke-width="1"/>
    <line id="Ligne_2" data-name="Ligne 2" x2="4.733" y2="0.189" transform="translate(242.193 143.534)" fill="none" stroke="#565987" stroke-miterlimit="10" stroke-width="1"/>
    <line id="Ligne_3" data-name="Ligne 3" x1="0.513" y2="2.317" transform="translate(244.559 138.371)" fill="none" stroke="#565987" stroke-miterlimit="10" stroke-width="1"/>
    <line id="Ligne_4" data-name="Ligne 4" x1="0.091" y2="2.107" transform="translate(250.013 145.426)" fill="none" stroke="#565987" stroke-miterlimit="10" stroke-width="1"/>
    <path id="Tracé_123" data-name="Tracé 123" d="M923.52,488.923s12.335-23.578,15.708-23.062c1.623.244,2.35,1.734,2.685,3.227a8.971,8.971,0,0,1-.672,5.739C939.491,478.6,934.794,485.766,923.52,488.923Z" transform="translate(-668.502 -336.01)" fill="#6c63ff"/>
    <path id="Tracé_124" data-name="Tracé 124" d="M939.515,480.54s-12.936,17.64-15.435,18.415" transform="translate(-668.88 -346.214)" fill="none" stroke="#565987" stroke-miterlimit="10" stroke-width="1"/>
    <line id="Ligne_5" data-name="Ligne 5" x1="3.019" transform="translate(268.805 137.08)" fill="none" stroke="#565987" stroke-miterlimit="10" stroke-width="1"/>
    <line id="Ligne_6" data-name="Ligne 6" x1="4.733" y2="0.189" transform="translate(263.475 143.534)" fill="none" stroke="#565987" stroke-miterlimit="10" stroke-width="1"/>
    <line id="Ligne_7" data-name="Ligne 7" x2="0.513" y2="2.317" transform="translate(265.328 138.371)" fill="none" stroke="#565987" stroke-miterlimit="10" stroke-width="1"/>
    <line id="Ligne_8" data-name="Ligne 8" x2="0.094" y2="2.107" transform="translate(260.293 145.426)" fill="none" stroke="#565987" stroke-miterlimit="10" stroke-width="1"/>
    <path id="Tracé_125" data-name="Tracé 125" d="M856.808,552.2a2.023,2.023,0,0,1-.7-1,.871.871,0,0,1,.49-1.017,1.429,1.429,0,0,1,1.3.43,1.775,1.775,0,0,0,1.26.571,1.741,1.741,0,0,1-.591-1.688.688.688,0,0,1,.162-.345c.25-.25.7-.14,1,.055a3.418,3.418,0,0,1,1.224,2.94,5.365,5.365,0,0,0,0-1.221,1.21,1.21,0,0,1,.484-1.072,1.505,1.505,0,0,1,.737-.165,1.6,1.6,0,0,1,1.2.321,1.073,1.073,0,0,1-.049,1.383,4.639,4.639,0,0,1-1.237.916,2.657,2.657,0,0,0-.886.794.945.945,0,0,0-.065.14h-2.681A7.438,7.438,0,0,1,856.808,552.2Z" transform="translate(-622.951 -393.784)" fill="#6c63ff"/>
    <path id="Tracé_126" data-name="Tracé 126" d="M1001.479,521.1a2,2,0,0,1-.7-1,.868.868,0,0,1,.49-1.014,1.435,1.435,0,0,1,1.3.427,1.782,1.782,0,0,0,1.263.571,1.735,1.735,0,0,1-.594-1.688.657.657,0,0,1,.166-.342c.25-.25.7-.143,1,.055a3.4,3.4,0,0,1,1.224,2.94,5.215,5.215,0,0,0,0-1.221,1.21,1.21,0,0,1,.484-1.072,1.553,1.553,0,0,1,.737-.162,1.589,1.589,0,0,1,1.2.305,1.061,1.061,0,0,1-.049,1.38,4.578,4.578,0,0,1-1.237.934,2.657,2.657,0,0,0-.886.794.726.726,0,0,0-.065.14h-2.681A7.519,7.519,0,0,1,1001.479,521.1Z" transform="translate(-720.66 -372.176)" fill="#6c63ff"/>
    <path id="Tracé_127" data-name="Tracé 127" d="M953.258,552.2a2.023,2.023,0,0,1-.7-1,.871.871,0,0,1,.49-1.017,1.429,1.429,0,0,1,1.3.43,1.775,1.775,0,0,0,1.26.571,1.744,1.744,0,0,1-.594-1.688.721.721,0,0,1,.166-.345c.25-.25.7-.14,1,.055a3.418,3.418,0,0,1,1.224,2.94,5.369,5.369,0,0,0,.016-1.221,1.21,1.21,0,0,1,.484-1.072,1.505,1.505,0,0,1,.737-.165,1.6,1.6,0,0,1,1.2.32,1.073,1.073,0,0,1-.049,1.383,4.639,4.639,0,0,1-1.237.916,2.656,2.656,0,0,0-.886.794.949.949,0,0,0-.065.14H954.92A7.441,7.441,0,0,1,953.258,552.2Z" transform="translate(-688.092 -393.784)" fill="#6c63ff"/>
    <path id="Tracé_128" data-name="Tracé 128" d="M813.354,496.58s-1.006,1.236.464,3.1,2.678,3.444,2.191,4.607c0,0-2.217-3.465-4.022-3.514S811.368,498.665,813.354,496.58Z" transform="translate(-592.573 -357.357)" fill="#6c63ff"/>
    <path id="Tracé_129" data-name="Tracé 129" d="M813.354,496.58a1.459,1.459,0,0,0-.208.388c-1.759,1.945-2.7,3.761-1.006,3.807,1.578.043,3.47,2.693,3.921,3.358a.449.449,0,0,1-.052.153s-2.217-3.465-4.022-3.514S811.368,498.665,813.354,496.58Z" transform="translate(-592.573 -357.357)" opacity="0.1"/>
    <path id="Tracé_130" data-name="Tracé 130" d="M812.29,501.107c0,.437.052.788.117.788s.114-.351.114-.788-.065-.229-.127-.229S812.29,500.673,812.29,501.107Z" transform="translate(-593.378 -360.308)" fill="#ffd037"/>
    <path id="Tracé_131" data-name="Tracé 131" d="M809.8,502.767c.406.211.763.336.792.284s-.273-.266-.678-.473-.247-.058-.279,0S809.389,502.559,809.8,502.767Z" transform="translate(-591.526 -361.45)" fill="#ffd037"/>
    <path id="Tracé_132" data-name="Tracé 132" d="M828.651,496.58s1.006,1.236-.464,3.1-2.678,3.444-2.188,4.607c0,0,2.214-3.465,4.019-3.514S830.638,498.665,828.651,496.58Z" transform="translate(-602.562 -357.357)" fill="#6c63ff"/>
    <path id="Tracé_133" data-name="Tracé 133" d="M828.767,496.58a1.461,1.461,0,0,1,.208.388c1.759,1.945,2.7,3.761,1.006,3.807-1.578.043-3.47,2.693-3.921,3.358a1.209,1.209,0,0,0,.055.153s2.214-3.465,4.019-3.514S830.754,498.665,828.767,496.58Z" transform="translate(-602.678 -357.357)" opacity="0.1"/>
    <path id="Tracé_134" data-name="Tracé 134" d="M839.68,501.107c0,.437-.052.788-.117.788s-.114-.351-.114-.788.065-.229.127-.229S839.68,500.673,839.68,501.107Z" transform="translate(-611.722 -360.308)" fill="#ffd037"/>
    <path id="Tracé_135" data-name="Tracé 135" d="M840.488,502.767c-.406.211-.763.336-.792.284s.273-.266.678-.473.247-.058.279,0S840.894,502.559,840.488,502.767Z" transform="translate(-611.886 -361.45)" fill="#ffd037"/>
    <path id="Tracé_136" data-name="Tracé 136" d="M817.392,518.051s-2.808-.079-3.655-.647-4.324-1.246-4.545-.336-4.22,4.524-1.052,4.549,7.375-.464,8.219-.949S817.392,518.051,817.392,518.051Z" transform="translate(-589.754 -371.281)" fill="#a8a8a8"/>
    <path id="Tracé_137" data-name="Tracé 137" d="M808.091,524.541c3.171.024,7.372-.464,8.219-.949.649-.366.9-1.691.974-2.3h.091s-.175,2.137-1.022,2.616-5.044.974-8.219.949c-.915,0-1.23-.305-1.214-.766C807.058,524.367,807.409,524.538,808.091,524.541Z" transform="translate(-589.75 -374.523)" opacity="0.2"/>
    <ellipse id="Ellipse_50" data-name="Ellipse 50" cx="7.021" cy="6.603" rx="7.021" ry="6.603" transform="translate(34.85 11.877)" fill="#6c63ff" opacity="0.1"/>
    <ellipse id="Ellipse_51" data-name="Ellipse 51" cx="7.021" cy="6.603" rx="7.021" ry="6.603" transform="translate(156.291 1.455)" fill="#6c63ff" opacity="0.1"/>
    <ellipse id="Ellipse_52" data-name="Ellipse 52" cx="7.021" cy="6.603" rx="7.021" ry="6.603" transform="translate(267.682 27.542)" fill="#6c63ff" opacity="0.1"/>
    <ellipse id="Ellipse_53" data-name="Ellipse 53" cx="11.767" cy="11.067" rx="11.767" ry="11.067" transform="translate(0 67.962)" fill="#6c63ff" opacity="0.1"/>
    <ellipse id="Ellipse_54" data-name="Ellipse 54" cx="11.767" cy="11.067" rx="11.767" ry="11.067" transform="translate(11.28 122.609)" fill="#6c63ff" opacity="0.1"/>
    <ellipse id="Ellipse_55" data-name="Ellipse 55" cx="11.767" cy="11.067" rx="11.767" ry="11.067" transform="translate(231.666 74.407)" fill="#6c63ff" opacity="0.1"/>
    <path id="Tracé_138" data-name="Tracé 138" d="M566.7,385.048c-.415.037-.837.018-1.25.079a5.9,5.9,0,0,0-1.948.736c-2.954,1.581-5.742,3.755-6.966,6.735a.868.868,0,0,0-.091.6,1.017,1.017,0,0,0,.344.421l1.149.983a1.627,1.627,0,0,0,.51.336,1.766,1.766,0,0,0,.941-.027c3.159-.681,6.515-1.465,8.732-3.688,1.052-1.053,2.022-2.5,3.571-2.543a17.355,17.355,0,0,1,1.9.305c.64.07,1.409-.186,1.561-.772a1.535,1.535,0,0,0-.1-.864l-.954-2.989c-.26-.818-2.879-.861-3.753-.714C569.005,383.857,568.109,384.926,566.7,385.048Z" transform="translate(-420.57 -278.851)" fill="#65617d"/>
    <path id="Tracé_139" data-name="Tracé 139" d="M601.352,425.036a23.653,23.653,0,0,1-.136,3.071,8.594,8.594,0,0,1-.808,2.3,15.045,15.045,0,0,1-2.207,3.27,6.82,6.82,0,0,1-3.022,2.137,3.318,3.318,0,0,1-3.473-.864,4.115,4.115,0,0,1-.6-2.812,16.366,16.366,0,0,1,1.662-7.006c.493-.916,1.12-1.789,1.623-2.714,1.052-1.92,1.652-4.2,3.467-5.523a11.964,11.964,0,0,0,3.6.931c.484.049,1.866.079,2.029.663.11.394-.8,1.5-.974,1.884a12.226,12.226,0,0,0-1.159,4.659Z" transform="translate(-443.98 -302.003)" fill="#65617d"/>
    <path id="Tracé_140" data-name="Tracé 140" d="M580.911,264.385a10.028,10.028,0,0,1,.974,2.845,17.25,17.25,0,0,1,0,1.832,11.312,11.312,0,0,0,.441,2.473l1.808,6.961a8.417,8.417,0,0,1,.4,3.172,15.81,15.81,0,0,0-.364,2.107,7.723,7.723,0,0,0,.273,1.6,9.274,9.274,0,0,1-.273,4.854.688.688,0,0,0-.055.376c.045.2.25.321.435.415a19.357,19.357,0,0,0,6.265,1.963,55.076,55.076,0,0,0,4.123-13.845c.461-2.882.685-5.8,1.276-8.661a.69.69,0,0,1,.211-.44c.221-.174.555-.064.815.052a73.988,73.988,0,0,1,9.547,5.19,10.705,10.705,0,0,0,2.2-9.284A18.548,18.548,0,0,0,607.367,262a22.316,22.316,0,0,0-2.759-4.356c-2.409-2.839-5.94-4.653-9.576-5.883-2.211-.751-4.486-1.307-6.758-1.874-1.273-.321-3.405-1.365-4.642-.553-1.3.846-2.162,2.943-2.694,4.274a14.925,14.925,0,0,0-1.058,5.156,13.8,13.8,0,0,0,1.032,5.623Z" transform="translate(-436.407 -185.381)" fill="#3f3d56"/>
    <path id="Tracé_141" data-name="Tracé 141" d="M620.526,313.2c-.678.7-.107,1.807-.237,2.748a3.657,3.657,0,0,1-.477,1.206l-3.107,5.736a10.276,10.276,0,0,0-1.156,2.748c-.425,2.07.448,4.4-.669,6.225a6.469,6.469,0,0,0-1.068,1.762,13.268,13.268,0,0,0-.055,1.484,9.484,9.484,0,0,1-.584,1.652,10.887,10.887,0,0,0-.3,1.624,9.449,9.449,0,0,1-3.649,5.935,6.041,6.041,0,0,1-4.025,1.288,3.462,3.462,0,0,1-3.181-2.378,2.987,2.987,0,0,0-.383-1.331c-.429-.528-1.331-.55-1.743-1.09l1.6-2.473a5.66,5.66,0,0,0,1.084-2.461c.1-1.1-.464-2.189-.263-3.273.172-.931.883-1.707,1.1-2.629.266-1.145-.266-2.3-.555-3.444-.708-2.812.084-5.742.873-8.548,1.049-3.712,2.123-7.483,4.246-10.765C612.206,309.366,616.1,311.427,620.526,313.2Z" transform="translate(-449.926 -225.807)" fill="#3f3d56"/>
    <path id="Tracé_142" data-name="Tracé 142" d="M611.893,131.056a4.69,4.69,0,0,1,.068,2.052c-.114,1.526.231,3.053.153,4.6a25.928,25.928,0,0,1-.935,4.531c-1,4.3-.756,8.771-1.659,13.085-1.113,5.343-3.96,10.319-4.522,15.741-.178,1.722-.156,3.566-1.159,5.019a85.153,85.153,0,0,1-16.789-9.275c1.143-7.971,2.272-15.982,2.12-24.023a9.713,9.713,0,0,1,.214-2.894,8.707,8.707,0,0,1,1.156-2.253c1.256-1.92,2.639-3.764,4.019-5.605a8.047,8.047,0,0,1,3.246-2.967,8.84,8.84,0,0,1,4.613-.043l5.538.952C609.107,130.173,611.4,129.795,611.893,131.056Z" transform="translate(-441.254 -101.811)" fill="#6c63ff"/>
    <path id="Tracé_143" data-name="Tracé 143" d="M521.517,211.968a17.133,17.133,0,0,0-2.467-1.926c1.152-1.319.925-3.227,1.208-4.915a15.512,15.512,0,0,1,1.049-3.2c.117-.29.282-.611.6-.687a1.121,1.121,0,0,1,.578.085c.974.324,3.006.305,3.762.9.912.72.078,2.229-.266,3.129C525.74,205.96,522,212.426,521.517,211.968Z" transform="translate(-395.327 -152.178)" fill="#be6f72"/>
    <path id="Tracé_144" data-name="Tracé 144" d="M498.566,394.775a6.091,6.091,0,0,1,.938,2.442,2.365,2.365,0,0,1-1.045,2.274,3.813,3.813,0,0,1-2.847.031,14.529,14.529,0,0,1-8.975-7.632,5.546,5.546,0,0,0-1.074-1.816,5.985,5.985,0,0,0-1.282-.809,6.728,6.728,0,0,1-3.1-2.833,2.922,2.922,0,0,1,.9-3.7,3.5,3.5,0,0,1,2.545-.305,10.175,10.175,0,0,1,2.409.986,13.851,13.851,0,0,1,6.573,4.72,37.872,37.872,0,0,1,2.672,3.206C496.547,391.661,498.79,394.478,498.566,394.775Z" transform="translate(-369.549 -277.972)" fill="#65617d"/>
    <path id="Tracé_145" data-name="Tracé 145" d="M443.483,382.064a20.015,20.015,0,0,1-.86,4.534,4.141,4.141,0,0,1-1.341,2.223,5.1,5.1,0,0,1-2.048.705,2.067,2.067,0,0,1-.782.046,1.918,1.918,0,0,1-1.042-.8,12.87,12.87,0,0,1-2.6-4.411,10.1,10.1,0,0,1,1.126-7.132,7.3,7.3,0,0,1,1.737-2.378,6.858,6.858,0,0,1,3.188-1.346c1.2-.226,2.668-.708,2.756.663a59.91,59.91,0,0,1-.136,7.895Z" transform="translate(-338.26 -271.67)" fill="#65617d"/>
    <path id="Tracé_146" data-name="Tracé 146" d="M443.213,214.19c2.24,1.09,4.726,2.476,5.194,4.805.289,1.423-.266,2.879-.175,4.326.081,1.273.649,2.5.578,3.773a16.793,16.793,0,0,1-.325,1.786,27.186,27.186,0,0,0-.127,3.413c-.107,2.564-1.019,5.031-1.461,7.562a20.85,20.85,0,0,0-.217,5.468c.107,1.178.325,2.351.325,3.535a14.59,14.59,0,0,1-.224,2.547,24.343,24.343,0,0,1-2.6,7.592c-1.561,2.891-1.341,6.622-1.175,9.861a2.309,2.309,0,0,1-.175,1.319c-.409.7-1.428.8-2.272.733a12.622,12.622,0,0,1-8.115-3.865,1.925,1.925,0,0,1-.591-1.029c-.071-.653.487-1.191.889-1.731,1.37-1.832,1.023-4.314,1.185-6.564a13.654,13.654,0,0,1,1.23-4.747,8.58,8.58,0,0,0,1-2.674,6.4,6.4,0,0,0-.484-2.6L434.7,244.8a82.117,82.117,0,0,0-5.314-13.274,6.669,6.669,0,0,0-3,3.969c-.85,2.876.36,6.087-.8,8.853a7.8,7.8,0,0,0-.477,1.188,4.5,4.5,0,0,0-.078,1.065,81.668,81.668,0,0,0,.578,8.905,2.627,2.627,0,0,0,.39,1.273c.192.259.471.452.675.7A3.139,3.139,0,0,1,427,260l-.649,4.085a1.066,1.066,0,0,1-.211.577,1.186,1.186,0,0,1-.552.281,16.317,16.317,0,0,1-6.382.549,4.346,4.346,0,0,1-1.737-.806c-.055-.611.753-1.017.782-1.624a1.373,1.373,0,0,0-.5-.934c-1.208-1.282-2.649-2.644-2.636-4.357,0-.449.114-.9.1-1.346-.042-1.151-.886-2.137-1.182-3.245-.364-1.371.12-2.793.305-4.195a20.4,20.4,0,0,0-.325-5.681l-1.087-6.912a17.55,17.55,0,0,0-.675-3.169,24.124,24.124,0,0,0-1.438-2.974c-1.039-1.984-1.892-4.048-2.743-6.106a5.307,5.307,0,0,1-.5-1.768,4.176,4.176,0,0,1,1.24-2.842A9.568,9.568,0,0,1,414,216.574a2.412,2.412,0,0,1,1.042-.04,2.863,2.863,0,0,1,.808.4,20.476,20.476,0,0,0,17.162,1.914,1.5,1.5,0,0,0,1.3-.034,16.684,16.684,0,0,0,2.808-1.832A17.176,17.176,0,0,1,443.213,214.19Z" transform="translate(-320.029 -161.178)" fill="#3f3d56"/>
    <path id="Tracé_147" data-name="Tracé 147" d="M309.862,461.37a4.115,4.115,0,0,0,.766,1.285c1.175,1.441,2.814,2.592,3.571,4.274.159.36.276.739.422,1.105a7.277,7.277,0,0,0,2.11,2.876,13.083,13.083,0,0,0,2.327,1.45,9.814,9.814,0,0,0,4.616,1.362,5.316,5.316,0,0,0,.974-.11,5.485,5.485,0,0,0,1.451-.5,2.794,2.794,0,0,0,1.74-2.714,2.379,2.379,0,0,0-.211-.611,6.375,6.375,0,0,0-.594-.882,6.817,6.817,0,0,0-1.915-1.9c-.9-.519-2.039-.647-2.85-1.288a4.283,4.283,0,0,1-.821-.934,11.438,11.438,0,0,1-1.623-3.459,5.183,5.183,0,0,0-1.123-2.592,4.736,4.736,0,0,0-2.636-.977,4.861,4.861,0,0,0-.974-.089,2.919,2.919,0,0,1-1.38-.064c-.435-.2-.581-.495-1.107-.455a2.346,2.346,0,0,0-1.139.467A3.509,3.509,0,0,0,309.862,461.37Z" transform="translate(-253.96 -329.956)" fill="#3f3d56"/>
    <path id="Tracé_148" data-name="Tracé 148" d="M326.409,466.227a4.607,4.607,0,0,0,1.386,2.812c.542.44,1.3.714,1.568,1.334a2.083,2.083,0,0,1-.526,1.966,7.546,7.546,0,0,1-2.091,1.8,3.279,3.279,0,0,1-2.3.528,3.869,3.869,0,0,1-1.646-1.007,10.92,10.92,0,0,1-2.87-3.27c-.649-1.368-.682-2.952-1.389-4.3a13.843,13.843,0,0,1-1.3-2.314,1.357,1.357,0,0,1,0-.94,1.424,1.424,0,0,1,1.272-.711,4.67,4.67,0,0,1,1.522.305,35.2,35.2,0,0,0,4.489,1.181c.607.107.974.1,1.3.656A6.284,6.284,0,0,1,326.409,466.227Z" transform="translate(-258.974 -333.424)" fill="#fbbebe"/>
    <path id="Tracé_149" data-name="Tracé 149" d="M356.061,500.224a3.252,3.252,0,0,0-.5,1.136,2.389,2.389,0,0,0-.036.959,5.484,5.484,0,0,0,1.451-.5,2.794,2.794,0,0,0,1.74-2.714,2.379,2.379,0,0,0-.211-.611.942.942,0,0,0-.863.253,6.975,6.975,0,0,0-1.578,1.478Z" transform="translate(-284.861 -358.672)" fill="#fbbebe"/>
    <path id="Tracé_150" data-name="Tracé 150" d="M321.1,423.825a1.421,1.421,0,0,0-.12.916c.149.611.815.962,1.415,1.24l5.71,2.625a12.238,12.238,0,0,1,1.156.577,16.778,16.778,0,0,1,2.571,2.082,6.825,6.825,0,0,0,2.857,1.664,5.1,5.1,0,0,0,3.246-.4,6.745,6.745,0,0,0,1.487-.949,8.859,8.859,0,0,0,1.071-1.047,2.225,2.225,0,0,0,.581-.986,2.08,2.08,0,0,0-.532-1.569,7.35,7.35,0,0,0-.649-.757c-2.165-2.25-5.713-3.416-8.765-3.874a26.182,26.182,0,0,1-3.535-.959,8.763,8.763,0,0,0-3.619-.449A3.584,3.584,0,0,0,321.1,423.825Z" transform="translate(-261.534 -305.469)" fill="#3f3d56"/>
    <path id="Tracé_151" data-name="Tracé 151" d="M321.1,423.825a1.421,1.421,0,0,0-.12.916c.149.611.815.962,1.415,1.24l5.71,2.625a12.238,12.238,0,0,1,1.156.577,16.778,16.778,0,0,1,2.571,2.082,6.825,6.825,0,0,0,2.857,1.664,5.1,5.1,0,0,0,3.246-.4,6.745,6.745,0,0,0,1.487-.949,8.859,8.859,0,0,0,1.071-1.047,2.225,2.225,0,0,0,.581-.986,2.08,2.08,0,0,0-.532-1.569,7.35,7.35,0,0,0-.649-.757c-2.165-2.25-5.713-3.416-8.765-3.874a26.182,26.182,0,0,1-3.535-.959,8.763,8.763,0,0,0-3.619-.449A3.584,3.584,0,0,0,321.1,423.825Z" transform="translate(-261.534 -305.469)" opacity="0.1"/>
    <path id="Tracé_152" data-name="Tracé 152" d="M356.211,431.649a6.08,6.08,0,0,1,1.071,1.554,1.654,1.654,0,0,1,.243,1.243,1.83,1.83,0,0,1-.594.733l-.568.495a2.268,2.268,0,0,1-.591.415,2.5,2.5,0,0,1-.974.137,3.82,3.82,0,0,1-2.2-.43,2.2,2.2,0,0,1-.613-2.674,5.881,5.881,0,0,1,2.009-2.219C354.653,430.4,355.747,431.188,356.211,431.649Z" transform="translate(-282.356 -311.617)" fill="#fbbebe"/>
    <path id="Tracé_153" data-name="Tracé 153" d="M376,440.767a2.563,2.563,0,0,0,.146,1.511c.143.458.282.916.422,1.383v.018a8.855,8.855,0,0,0,1.071-1.047,2.226,2.226,0,0,0,.581-.986,2.081,2.081,0,0,0-.532-1.569,7.35,7.35,0,0,0-.649-.757c-.153.186-.286.369-.4.488A2.679,2.679,0,0,0,376,440.767Z" transform="translate(-298.676 -317.578)" fill="#fbbebe"/>
    <path id="Tracé_154" data-name="Tracé 154" d="M328.9,324.506a21.679,21.679,0,0,0-.029,8.145,14.008,14.008,0,0,1-.071,6.188,4.718,4.718,0,0,0-.474,2.262c.276,1.444,2.126,2,3.658,2.271a3.829,3.829,0,0,0,1.354.076,3.287,3.287,0,0,0,1.234-.611,12.789,12.789,0,0,0,4.749-5.938,20.793,20.793,0,0,0,.945-4.964,32.683,32.683,0,0,0,.162-8.478c-.13-.824-.325-1.639-.406-2.47a16.8,16.8,0,0,1,.253-4.32,66.188,66.188,0,0,1,2.532-10.423,15.749,15.749,0,0,1-8.985-1.526c.532.269-.078,4.552-.143,5.153a33.109,33.109,0,0,1-1.029,5.312C331.741,318.443,329.718,321.27,328.9,324.506Z" transform="translate(-266.49 -224.07)" fill="#3f3d56"/>
    <path id="Tracé_155" data-name="Tracé 155" d="M328.9,324.506a21.679,21.679,0,0,0-.029,8.145,14.008,14.008,0,0,1-.071,6.188,4.718,4.718,0,0,0-.474,2.262c.276,1.444,2.126,2,3.658,2.271a3.829,3.829,0,0,0,1.354.076,3.287,3.287,0,0,0,1.234-.611,12.789,12.789,0,0,0,4.749-5.938,20.793,20.793,0,0,0,.945-4.964,32.683,32.683,0,0,0,.162-8.478c-.13-.824-.325-1.639-.406-2.47a16.8,16.8,0,0,1,.253-4.32,66.188,66.188,0,0,1,2.532-10.423,15.749,15.749,0,0,1-8.985-1.526c.532.269-.078,4.552-.143,5.153a33.109,33.109,0,0,1-1.029,5.312C331.741,318.443,329.718,321.27,328.9,324.506Z" transform="translate(-266.49 -224.07)" opacity="0.1"/>
    <path id="Tracé_156" data-name="Tracé 156" d="M339.094,300.071c1.3,3.538,1.013,7.4.451,11.11s-1.389,7.412-1.146,11.146a11.693,11.693,0,0,1-.107,4.372,9.321,9.321,0,0,1-1,1.951L326.938,345.5a3.247,3.247,0,0,1-2.6,1.526,7.926,7.926,0,0,1-3.227-.65,5.919,5.919,0,0,1-1.879-.98,2.034,2.034,0,0,1-.792-1.789c.464-2.925,1.162-5.92,1.678-8.853a14.781,14.781,0,0,1,2.253-5.608c.8-1.221,1.789-2.317,2.48-3.587,1.987-3.639,1.3-8.078-.234-11.906s-3.814-7.382-5.031-11.3a12.253,12.253,0,0,1-.614-3.358,8.68,8.68,0,0,1,2.714-6.368,2.388,2.388,0,0,1,.938-.611,2.791,2.791,0,0,1,1.279.021C329.674,293.089,337.189,294.844,339.094,300.071Z" transform="translate(-259.834 -215.199)" fill="#3f3d56"/>
    <path id="Tracé_157" data-name="Tracé 157" d="M622.81,136.069a5.854,5.854,0,0,1-1.055,3.847c-2.762,4.335-9.131,6.252-14.056,4.234a22.525,22.525,0,0,1-5.427-3.563A4.632,4.632,0,0,1,600.834,139a2.973,2.973,0,0,1,1.094-3.328,9.561,9.561,0,0,1,3.548-1.584C609.686,132.857,621.807,128.968,622.81,136.069Z" transform="translate(-450.442 -104.021)" fill="#fbbebe"/>
    <path id="Tracé_158" data-name="Tracé 158" d="M642.287,131.554c3.834,2.9,9.414,5.663,13.757,7.812,1.477.733,3.116,1.557,3.649,3.053a5.6,5.6,0,0,1,.1,2.513,16.077,16.077,0,0,1-1.036,4.772,31.279,31.279,0,0,1-3.275,4.814c-1.948,2.8-3.09,6.106-5.5,8.582,1.623,5.071,3.4,10.136,3.977,15.4a.669.669,0,0,1-.049.43.77.77,0,0,1-.253.217l-4.038,2.491a4.491,4.491,0,0,0-1.165.916c-.714.873-.62,2.1-1.062,3.117a4.223,4.223,0,0,1-2.5,2.137,8.157,8.157,0,0,1-3.438.342,8.321,8.321,0,0,1-4.1-1.359,10.863,10.863,0,0,1-2.47-2.775,10.625,10.625,0,0,1-1.3-2.226,9.461,9.461,0,0,1-.442-3.544,35.319,35.319,0,0,1,.691-6.787c.188-.888.422-1.765.571-2.659.3-1.8.24-3.639.461-5.449a34.8,34.8,0,0,1,1.444-6.005,29.377,29.377,0,0,0,.844-3.694,38.641,38.641,0,0,1,1.893-6.411l1.3-3.605c.276-.778.555-1.554.883-2.314a17.3,17.3,0,0,0,1.6-4.317c.23-1.652-1.665-3.612-1.026-5.162C641.859,131.67,642.141,131.444,642.287,131.554Z" transform="translate(-472.382 -103.75)" fill="#3f3d56"/>
    <path id="Tracé_159" data-name="Tracé 159" d="M663.835,164.42a3.494,3.494,0,0,1,1.717,2.171,11.608,11.608,0,0,1,.506,6.167,10.429,10.429,0,0,0-.26,1.575,9.9,9.9,0,0,0,.192,1.832c.325,2.335,0,4.708.107,7.064.11,2.65.724,5.449-.458,7.858a11.507,11.507,0,0,1-3.74,3.871,76.122,76.122,0,0,1-17.909,9.72,4.192,4.192,0,0,0,.39-4.61,8.843,8.843,0,0,0-3.571-3.444,23.979,23.979,0,0,0,5.372-1.8,46.591,46.591,0,0,0,9.2-6.356,2.665,2.665,0,0,0,.954-1.136c.292-.916-.513-1.786-1.071-2.589-1.691-2.442-1.3-5.633-.591-8.46a21.268,21.268,0,0,1,4.061-8.676A9.18,9.18,0,0,1,663.835,164.42Z" transform="translate(-477.563 -126.602)" fill="#3f3d56"/>
    <path id="Tracé_160" data-name="Tracé 160" d="M626.651,279.331a4.278,4.278,0,0,1-1.117,1.154,3.888,3.888,0,0,1-3.4-.055,10.018,10.018,0,0,1-2.759-1.652,4.316,4.316,0,0,0-1.224-.855c-.851-.305-2.039-.076-2.516-.812a.412.412,0,0,1-.078-.263c.029-.266.4-.339.685-.354A8.892,8.892,0,0,0,620,275.4a3.49,3.49,0,0,1-.922-.916.687.687,0,0,1-.156-.434.769.769,0,0,1,.282-.434,7.576,7.576,0,0,1,7.947-1.246,1.579,1.579,0,0,1,.649.458,1.633,1.633,0,0,1,.237.611c.211.855.974,2.137.7,3C628.43,277.438,627.277,278.491,626.651,279.331Z" transform="translate(-460.508 -201.178)" fill="#fbbebe"/>
    <path id="Tracé_161" data-name="Tracé 161" d="M573.846,169.136c4.038-4.387,5.843-10.16,7.518-15.744l1.2-3.969,2.889-9.559c.425-1.41.85-2.821,1.133-4.259a37.107,37.107,0,0,0,.5-7.541,7.76,7.76,0,0,0-.75-3.028c-.282-.659-.419-1.362-.649-2.042a9.914,9.914,0,0,0-1.3-2.683,2.858,2.858,0,0,0-.588-.659,3.539,3.539,0,0,0-1.328-.507,12.371,12.371,0,0,0-3.178-.455,4.062,4.062,0,0,0-2.883,1.157,13.831,13.831,0,0,0-1.191,2.015,7.765,7.765,0,0,0-.529.846,4.053,4.053,0,0,0-.292,1.386q-.253,2.885-.432,5.776a25.522,25.522,0,0,0-.068,2.638c.029.684.107,1.365.185,2.045l.769,6.668c.179,1.566.052,3.032.2,4.6.364,3.789-.5,7.577-1.393,11.3a19.471,19.471,0,0,1-1.772,5.159c-.8,1.417-2,2.854-1.685,4.433a14.664,14.664,0,0,1,.451,1.618,3.063,3.063,0,0,0,.107,1.023,1.328,1.328,0,0,0,1.386.611A3.292,3.292,0,0,0,573.846,169.136Z" transform="translate(-429.839 -94.833)" fill="#3f3d56"/>
    <path id="Tracé_162" data-name="Tracé 162" d="M569.144,216.663c.123.876.029,1.765.075,2.647a16.9,16.9,0,0,0,.649,3.358,5.008,5.008,0,0,0,1.886,3.267,5.992,5.992,0,0,1,.821.485.725.725,0,0,1,.266.818l-.893-.14a.826.826,0,0,1,.337.849.877.877,0,0,1-.667.654.94.94,0,0,1-.916-.282,1.874,1.874,0,0,1-.081.818.7.7,0,0,1-.649.458,1.082,1.082,0,0,1-.464-.183l-2.331-1.359a4.2,4.2,0,0,1-1.678-1.526l-1.019-1.444a3.392,3.392,0,0,1-.529-.916c-.38-1.221.682-2.577.13-3.728a5.006,5.006,0,0,0-.581-.8c-1.178-1.526-1.1-3.6-.974-5.5.042-.638.166-1.4.779-1.673a1.682,1.682,0,0,1,1.522.253,6.538,6.538,0,0,0,1.363.809c.325.1.682.116,1.006.226.454.15.876.733,1.182,1.078A3.457,3.457,0,0,1,569.144,216.663Z" transform="translate(-424.643 -159.917)" fill="#fbbebe"/>
    <path id="Tracé_163" data-name="Tracé 163" d="M475.048,97.994a5.419,5.419,0,0,1-1.143,1.606,2.3,2.3,0,0,1-1.883.611A3.313,3.313,0,0,1,470.3,98.99a21.37,21.37,0,0,1-3.347-4.4c-1.279-2.482-1.483-5.315-1.669-8.066a3.619,3.619,0,0,1,.276-2.079,4.085,4.085,0,0,1,2.324-1.478l4.95-1.74a2.025,2.025,0,0,1,.974-.168c.776.122,1.061,1,1.273,1.713a10.44,10.44,0,0,0,1.85,3.541c1.11,1.392,3.6,3.267,2.178,5A37.878,37.878,0,0,0,475.048,97.994Z" transform="translate(-358.992 -68.685)" fill="#be6f72"/>
    <path id="Tracé_164" data-name="Tracé 164" d="M454.524,93.255c2.168,1.917,2.9,4.9,2.8,7.7s-.928,5.517-1.4,8.276-.565,5.706.711,8.243a20.242,20.242,0,0,1,1.341,2.595,7.676,7.676,0,0,1,.256,2.787,7.545,7.545,0,0,1-.591,2.882,9.392,9.392,0,0,1-3.473,3.358,33.3,33.3,0,0,1-8.865,4.79,28.749,28.749,0,0,1-6.856,1.007,23.175,23.175,0,0,1-4.694-.125,13.02,13.02,0,0,1-7.125-3.547,3.773,3.773,0,0,1-.808-1.047,4.118,4.118,0,0,1-.282-1.588q-.117-3.007.039-6.014a24.965,24.965,0,0,1,.834-5.663c.62-2.137,1.694-4.14,2.509-6.222,2.837-7.238,2.551-15.475,6.492-22.234.85-1.459,2.272-2.995,4.025-2.763a1.389,1.389,0,0,1,.889.385,1.691,1.691,0,0,1,.325.94,26.42,26.42,0,0,0,2.659,9.62c.649,1.163,1.623,2.934,3.12,3.245s2.379-1.032,3.181-1.984a25.187,25.187,0,0,1,4.915-4.637Z" transform="translate(-332.135 -71.889)" fill="#e3e8f4"/>
    <path id="Tracé_165" data-name="Tracé 165" d="M519.379,89.954a6.487,6.487,0,0,1,1.23.812,4.518,4.518,0,0,1,1.324,3.453,25.327,25.327,0,0,1-.519,3.743c-.523,3.358-.078,6.8.13,10.2a4.649,4.649,0,0,1-.1,1.642c-.159.513-.487.965-.7,1.462-.62,1.471-.153,3.151-.516,4.7-.39,1.646-1.724,3.141-1.474,4.811.1.653.435,1.255.578,1.9a1.614,1.614,0,0,1-.575,1.777c-.594.348-1.458.095-2.165.287a6.887,6.887,0,0,0-.838.354,4.348,4.348,0,0,1-3.477-.2,10.46,10.46,0,0,1-2.808-2.094,10.86,10.86,0,0,1-2.977-4.079c-.792-2.3-.088-4.8.773-7.074s1.886-4.579,1.733-7a29.222,29.222,0,0,0-.812-3.99,24.029,24.029,0,0,1-.36-5.587,9.415,9.415,0,0,1,.766-4.015,5.891,5.891,0,0,1,4.648-2.992C515.513,87.826,517.461,88.916,519.379,89.954Z" transform="translate(-386.613 -73.531)" fill="#3f3d56"/>
    <path id="Tracé_166" data-name="Tracé 166" d="M527.921,157.494a8.816,8.816,0,0,0,.552,2.867,10.8,10.8,0,0,0,.727-4,74.4,74.4,0,0,1,2.6-13.592c-.854.611-1.334,2.137-1.743,3.053a25.5,25.5,0,0,0-2.133,11.671Z" transform="translate(-401.293 -111.562)" opacity="0.1"/>
    <path id="Tracé_167" data-name="Tracé 167" d="M405.141,84.036a40.917,40.917,0,0,0-4.437,1.832,34.822,34.822,0,0,1-4.921,1.246c-3.824.873-7.664,2.494-9.972,5.5-1.7,2.207-2.405,4.933-3.571,7.434a59.639,59.639,0,0,0-2.99,6.246,22.678,22.678,0,0,0-.6,8.875,17.328,17.328,0,0,0,1.652,7.077c.617,1.136,1.467,2.152,2.084,3.288.74,1.365,1.13,2.87,1.746,4.274a6.912,6.912,0,0,0,2.954,3.541l2.37-1.3c3.535-1.945,7.07-3.892,10.495-6.005,2.986-1.832,6-3.935,7.589-6.945a14.709,14.709,0,0,0,1.185-8.719c-.364-2.952-1.195-5.84-1.623-8.783a33.3,33.3,0,0,1,.243-11.146c.325-1.661,1.188-3.377,1.367-5.031C408.91,83.642,406.495,83.7,405.141,84.036Z" transform="translate(-300.396 -70.629)" fill="#3f3d56"/>
    <path id="Tracé_168" data-name="Tracé 168" d="M401.959,234.763c1.815,1.615,4.424,2.085,6.693,3.053a14.369,14.369,0,0,1,4.47,3.053c.7.72,1.373,1.7,1.023,2.616a3.08,3.08,0,0,1-2.032,1.484,4.887,4.887,0,0,1-3.214.321,11.684,11.684,0,0,1-1.646-.959c-1.36-.76-3.074-.763-4.47-1.465-1.967-.989-2.947-3.166-4.8-4.341-1.013-.641-2.412-1.166-2.516-2.311a2.653,2.653,0,0,1,.273-1.2c.373-.934,1.01-4.143,2.431-4.057C399.722,231.051,400.806,233.991,401.959,234.763Z" transform="translate(-311.863 -172.824)" fill="#fbbebe"/>
    <path id="Tracé_169" data-name="Tracé 169" d="M350.766,176.94a14.466,14.466,0,0,0,3.405,5.315c1.029,1.145,2.159,2.39,2.194,3.889a4.079,4.079,0,0,1-2.272,3.444,10.113,10.113,0,0,1-4.33,1.047,11.6,11.6,0,0,1-3.59-.235c-2.967-.757-5.025-3.19-7.359-5.071a22.167,22.167,0,0,1-4.006-3.48c-1.061-1.4-1.509-3.4-.464-4.805a7.192,7.192,0,0,1,1.3-1.221,20.761,20.761,0,0,0,4.476-5.053,5.517,5.517,0,0,1,1.75-2.058c1.159-.662,2.646-.36,3.957-.037,1.425.351,5.44,1.038,5.72,2.748.114.7-.812,1.8-.951,2.549a6.365,6.365,0,0,0,.172,2.967Z" transform="translate(-270.178 -129.31)" fill="#fbbebe"/>
    <path id="Tracé_170" data-name="Tracé 170" d="M346.235,191.342a12.5,12.5,0,0,1,1.045,2.274c.99,3.236-.779,6.57-1.623,9.843-1.078,4.192-.62,8.576-.672,12.889-.023,1.972-.247,4.143-1.756,5.51a5.277,5.277,0,0,0-1.12,1.081,4.291,4.291,0,0,0-.36,1.01,5.333,5.333,0,0,1-3.214,3.377,5.851,5.851,0,0,1-4.811-.27c-1.23-.644-2.3-1.762-3.707-1.8a11.4,11.4,0,0,0-1.321.137,9.55,9.55,0,0,1-4.09-.836,2.727,2.727,0,0,1-.863-.434c-.237-.2-.39-.479-.607-.7-.8-.812-2.172-.672-3.327-.9a4.528,4.528,0,0,1-3.529-3.318,8.066,8.066,0,0,1,.159-3.2l.87-4.72a41.011,41.011,0,0,0,.756-5.242,20.714,20.714,0,0,0-.539-5.926,45.11,45.11,0,0,1-1.162-4.759,11.116,11.116,0,0,1,2.272-8.185,2.7,2.7,0,0,1,1.808-1.221,3.167,3.167,0,0,1,1.74.559q7.021,3.908,14.14,7.654a17.271,17.271,0,0,0,4.074,1.716c.435.1,1.058.061,1.12-.354a.737.737,0,0,0-.127-.449c-.812-1.468-1.987-2.729-2.922-4.128a6.7,6.7,0,0,1-1.38-4.677c.377-2.247,2.6-3.734,4.411-1.972A28.733,28.733,0,0,1,346.235,191.342Z" transform="translate(-258.307 -139.884)" fill="#f86d70"/>
    <path id="Tracé_171" data-name="Tracé 171" d="M345.938,292.262c3.808.229,7.7.473,11.225,1.847a6.234,6.234,0,0,0,3.525.736,4.816,4.816,0,0,0,1.623-.818,36.63,36.63,0,0,0,4.149-3.328c-.13-.669-1.094-.76-1.815-.754a11.405,11.405,0,0,1-5.051-1.142,8.771,8.771,0,0,0-1.623-.711c-1.542-.4-3.113.363-4.661.736a19.143,19.143,0,0,1-7.047-.095l-6.317-.876a2.383,2.383,0,0,0-1.717.2,1.944,1.944,0,0,0-.614,1.035c-.773,2.442-.4,2.647,2.168,2.8Z" transform="translate(-272.546 -212.311)" fill="#fbbebe"/>
    <ellipse id="Ellipse_56" data-name="Ellipse 56" cx="10.388" cy="9.769" rx="10.388" ry="9.769" transform="translate(149.26 18.026)" opacity="0.1"/>
    <ellipse id="Ellipse_57" data-name="Ellipse 57" cx="10.388" cy="9.769" rx="10.388" ry="9.769" transform="translate(149.185 17.601)" fill="#fbbebe"/>
    <path id="Tracé_172" data-name="Tracé 172" d="M616.231,83.29a5.437,5.437,0,0,1,2.155,1.813,8.686,8.686,0,0,1,.555,1.71c.568,1.832,2.081,3.422,2.172,5.33.1,2.091-1.568,3.908-3.457,5a2.673,2.673,0,0,1-1.487.47,4.963,4.963,0,0,1-1.526-.565c-2.133-.891-4.519.238-6.778.757a12.9,12.9,0,0,1-7.077-.391,6.716,6.716,0,0,1-3.162-2.061,3.1,3.1,0,0,1-.386-3.447c.325-.543.863-1.035.828-1.655a8.158,8.158,0,0,0-.325-1.075,2.373,2.373,0,0,1,.552-1.649,24.4,24.4,0,0,1,5.616-5.975,4.124,4.124,0,0,1,2.25-1.026c1.707-.07,3.175,1.127,4.931,1.133A9.616,9.616,0,0,1,616.231,83.29Z" transform="translate(-447.891 -68.323)" fill="#3f3d56"/>
    <ellipse id="Ellipse_58" data-name="Ellipse 58" cx="10.712" cy="10.075" rx="10.712" ry="10.075" transform="translate(110.621 5.158)" opacity="0.1"/>
    <ellipse id="Ellipse_59" data-name="Ellipse 59" cx="10.712" cy="10.075" rx="10.712" ry="10.075" transform="translate(110.81 4.91)" fill="#be6f72"/>
    <path id="Tracé_173" data-name="Tracé 173" d="M490.91,61.236a7.572,7.572,0,0,0,5.067.351,7.052,7.052,0,0,0,2.662-1.056,2.977,2.977,0,0,0,1.341-2.32c0-1.023-.714-1.945-.8-2.967-.107-1.288.786-2.479.88-3.773a6.3,6.3,0,0,0-1.247-3.572,20.087,20.087,0,0,0-4.058-5.3,7.737,7.737,0,0,0-6.408-1.9,29.378,29.378,0,0,1-3.292.916,14.712,14.712,0,0,1-3.022-.321,3.638,3.638,0,0,0-2.866.611c-.4.366-.649.882-1.113,1.151a6.955,6.955,0,0,1-.974.339c-1.172.443-1.707,1.685-2.123,2.8L472.17,53.7a23.005,23.005,0,0,0,3.074,1.359,3.587,3.587,0,0,1,2.217,2.271c.159.8-.143,1.713.351,2.378a2.284,2.284,0,0,0,2.149.611,8.6,8.6,0,0,1,2.34-.244c1.948.278,2.672,1.4,4.473,0S489.235,60.35,490.91,61.236Z" transform="translate(-363.665 -40.56)" fill="#3f3d56"/>
    <ellipse id="Ellipse_60" data-name="Ellipse 60" cx="9.738" cy="9.159" rx="9.738" ry="9.159" transform="translate(66.26 28.546)" opacity="0.1"/>
    <ellipse id="Ellipse_61" data-name="Ellipse 61" cx="9.738" cy="9.159" rx="9.738" ry="9.159" transform="translate(66.636 28.048)" fill="#fbbebe"/>
    <path id="Tracé_174" data-name="Tracé 174" d="M336.36,122.939a26.276,26.276,0,0,0-7.7-3.81,9.982,9.982,0,0,0-5.518-.415c-2.448.656-5.723,1.636-7.239,3.563a10.07,10.07,0,0,0-1.863,3.053c-.721,2.277.305,4.7.237,7.08-.081,2.769-1.643,5.3-3.347,7.556s-2.048,5.5-3.055,8.1c-.344.894-.454,2.137.432,2.586.779.406,1.72-.1,2.441-.589l4.334-2.946a3.374,3.374,0,0,1,1.143-.574,3.444,3.444,0,0,1,2.512.827l9.089,6.045a2.482,2.482,0,0,0,.042-2.223,9.251,9.251,0,0,1,2.224,1.392,1.937,1.937,0,0,0,2.435-.034,1.552,1.552,0,0,0-.474-2.1c-.607-.537-1.406-.858-2-1.41-1.178-1.1-1.3-2.842-2.042-4.234a22.445,22.445,0,0,1-1.769-2.836c-.614-1.7.188-3.532.974-5.169.938-1.942,2-4.015,4-5.028.672-.342,1.415-.543,2.1-.855A11.069,11.069,0,0,0,338,126.694C338.737,125.244,337.607,123.843,336.36,122.939Z" transform="translate(-252.529 -94.686)" fill="#3f3d56"/>
    <path id="Tracé_175" data-name="Tracé 175" d="M319.331,231.549c.932.559,1.983.916,2.9,1.5a3.321,3.321,0,0,1,1.743,2.506,4.3,4.3,0,0,1-1.3,2.65l-7.908,9.76,4.032,1a9.545,9.545,0,0,0-1.152,2.906,3.211,3.211,0,0,1-2.052,2.277c-.974.235-1.993-.247-3-.192-.743.043-1.445.372-2.188.4a4.825,4.825,0,0,1-2.646-.94c-1.779-1.12-3.545-2.726-3.532-4.741a6.8,6.8,0,0,1,.432-2c1.165-3.575,2.373-7.235,4.788-10.209a33.106,33.106,0,0,1,4.473-4.259,4.188,4.188,0,0,1,1.253-.815c1.039-.366,2.172.085,3.246.379s2.428.336,3.048-.528" transform="translate(-250.24 -173.03)" opacity="0.1"/>
    <path id="Tracé_176" data-name="Tracé 176" d="M318.288,229.531c.932.556,1.983.916,2.9,1.5a3.333,3.333,0,0,1,1.746,2.5,4.183,4.183,0,0,1-1.3,2.653l-7.911,9.751,4.032,1a9.513,9.513,0,0,0-1.152,2.906,3.205,3.205,0,0,1-2.052,2.277c-.974.235-1.993-.247-3-.192-.743.04-1.445.372-2.188.4a4.825,4.825,0,0,1-2.646-.94c-1.779-1.117-3.545-2.726-3.529-4.738a6.659,6.659,0,0,1,.429-2c1.165-3.578,2.373-7.238,4.788-10.209a33.991,33.991,0,0,1,4.473-4.274,4.307,4.307,0,0,1,1.253-.815c1.039-.366,2.172.085,3.246.382s2.428.336,3.048-.528" transform="translate(-249.538 -171.613)" fill="#f86d70"/>
    <g id="Groupe_5" data-name="Groupe 5" transform="translate(148.986 19.311)" opacity="0.1">
      <path id="Tracé_177" data-name="Tracé 177" d="M597.965,119.059a6.709,6.709,0,0,0,3.162,2.061,12.838,12.838,0,0,0,7.077.391c2.272-.519,4.645-1.649,6.778-.757a4.952,4.952,0,0,0,1.522.568,2.706,2.706,0,0,0,1.49-.473,7.408,7.408,0,0,0,3.1-3.184.74.74,0,0,0,.019.2c.1,2.091-1.568,3.908-3.457,5a2.673,2.673,0,0,1-1.487.47,4.963,4.963,0,0,1-1.526-.565c-2.133-.891-4.519.238-6.778.757a12.9,12.9,0,0,1-7.077-.391,6.716,6.716,0,0,1-3.162-2.061,3.1,3.1,0,0,1-.386-3.447l.049-.076A3.621,3.621,0,0,0,597.965,119.059Z" transform="translate(-596.877 -113.359)"/>
      <path id="Tracé_178" data-name="Tracé 178" d="M600.148,104.4a2.078,2.078,0,0,1-.565,1.264,1.84,1.84,0,0,1-.094-.305,2.256,2.256,0,0,1,.49-1.557,1.935,1.935,0,0,1,.169.6Z" transform="translate(-598.628 -103.8)"/>
    </g>
    <path id="Tracé_179" data-name="Tracé 179" d="M475.7,52.749l-2.785,7.5a22.621,22.621,0,0,0,3.074,1.359,3.58,3.58,0,0,1,2.217,2.271c.159.8-.143,1.713.351,2.381a2.292,2.292,0,0,0,2.149.611,8.724,8.724,0,0,1,2.34-.244c1.948.278,2.672,1.4,4.473.015s2.454.259,4.129,1.145a7.535,7.535,0,0,0,5.067.351,7.054,7.054,0,0,0,2.662-1.053,4.065,4.065,0,0,0,.325-.278,3.45,3.45,0,0,1-1.091,1.27,7.053,7.053,0,0,1-2.662,1.056,7.564,7.564,0,0,1-5.067-.351c-1.675-.885-2.363-2.5-4.129-1.145s-2.532.263-4.473,0a8.615,8.615,0,0,0-2.34.244,2.282,2.282,0,0,1-2.149-.611c-.493-.666-.192-1.581-.351-2.378a3.58,3.58,0,0,0-2.217-2.271,23.006,23.006,0,0,1-3.074-1.359l2.8-7.525a6,6,0,0,1,1.331-2.311,9.916,9.916,0,0,0-.578,1.319Z" transform="translate(-363.652 -48.107)" opacity="0.1"/>
    <g id="Groupe_6" data-name="Groupe 6" transform="translate(55.093 27.139)" opacity="0.1">
      <path id="Tracé_180" data-name="Tracé 180" d="M363.015,159.139a1.782,1.782,0,0,0,2.078-.22c.51-.611.133-1.557-.474-2.1s-1.406-.858-2-1.41c-1.178-1.1-1.3-2.839-2.042-4.231a22.7,22.7,0,0,1-1.769-2.839c-.614-1.7.188-3.532.974-5.166.938-1.942,2-4.015,4-5.028.672-.342,1.415-.543,2.1-.855a11.076,11.076,0,0,0,4.691-4.231c.7-1.377-.289-2.714-1.47-3.621.575.351,1.136.72,1.681,1.114,1.25.916,2.376,2.3,1.623,3.749a11.069,11.069,0,0,1-4.691,4.228c-.688.305-1.432.513-2.1.855-2,1.014-3.058,3.086-4,5.028-.789,1.636-1.591,3.468-.974,5.169a22.448,22.448,0,0,0,1.769,2.836c.753,1.392.863,3.132,2.042,4.234.594.553,1.393.87,2,1.41a1.606,1.606,0,0,1,.474,2.1c-.5.623-1.688.495-2.435.034C363.989,159.874,363.531,159.453,363.015,159.139Z" transform="translate(-342.048 -129.44)"/>
      <path id="Tracé_181" data-name="Tracé 181" d="M308.908,209.747l4.334-2.943a3.383,3.383,0,0,1,1.143-.577,3.46,3.46,0,0,1,2.512.83l9.089,6.045a2.488,2.488,0,0,0,.042-2.226,9.12,9.12,0,0,1,2.165,1.355,2.528,2.528,0,0,0-.325-.113,2.482,2.482,0,0,1-.042,2.223l-9.089-6.045a3.448,3.448,0,0,0-2.512-.827,3.373,3.373,0,0,0-1.143.574l-4.334,2.946c-.721.488-1.662,1-2.441.589a1.322,1.322,0,0,1-.678-1.178,4.8,4.8,0,0,0,1.279-.653Z" transform="translate(-307.628 -182.757)"/>
    </g>
    <path id="Tracé_182" data-name="Tracé 182" d="M598.7,275.094s-18.6,1.4-22.3-1.078l17.016-2.467Z" transform="translate(-434.061 -201.027)" fill="#e3e8f4"/>
    <path id="Tracé_183" data-name="Tracé 183" d="M598.7,275.094s-18.6,1.4-22.3-1.078l17.016-2.467Z" transform="translate(-434.061 -201.027)" opacity="0.1"/>
    <path id="Tracé_184" data-name="Tracé 184" d="M593.061,268.7l-5.21-3.1s-15.542,4.2-19.8,2.467l4.334-5.718,15.4,2.824Z" transform="translate(-428.421 -194.635)" fill="#e3e8f4"/>
    <path id="Tracé_185" data-name="Tracé 185" d="M558.466,133.13a8.469,8.469,0,0,0-1.367,2.256c-.149.43-.224.879-.351,1.316a9.9,9.9,0,0,1-1.623,3.025c-1.6,2.189-3.6,4.3-4,6.93a11.012,11.012,0,0,0,.292,3.9,10.062,10.062,0,0,0,.766,2.464c.412.837,1.026,1.572,1.5,2.381a16.366,16.366,0,0,1,1.084,2.467,12.1,12.1,0,0,0,1.328-1.832,2.517,2.517,0,0,1,1.889-1.169c.9,0,1.646.7,2.538.812a.767.767,0,0,0,.416-.037c.325-.143.351-.556.325-.885-.256-2.3-1.659-4.579-1-6.814.61-2.067,2.792-3.358,3.938-5.211a11.42,11.42,0,0,0,1.3-4.479,26.133,26.133,0,0,0,.432-5.569c-.062-.937-.854-6.86-2.3-6.24-.5.214-.941,1.12-1.256,1.526l-1.3,1.731Z" transform="translate(-416.939 -100.191)" fill="#3f3d56"/>
    <path id="Tracé_186" data-name="Tracé 186" d="M266.618,230.883l-10.443,8L242.74,236.62l9.047-6.68Z" transform="translate(-163.944 -159.737)" fill="#e3e8f4"/>
    <path id="Tracé_187" data-name="Tracé 187" d="M267.778,229.253l-10.443,8L243.9,234.99l9.047-6.68Z" transform="translate(-164.727 -158.605)" opacity="0.1"/>
    <path id="Tracé_188" data-name="Tracé 188" d="M267.542,227.856,257.1,235.849l-13.439-2.256,9.05-6.683Z" transform="translate(-164.565 -157.632)" fill="#e3e8f4"/>
    <path id="Tracé_189" data-name="Tracé 189" d="M268.472,224.833l-10.446,8L244.59,230.57l9.05-6.68Z" transform="translate(-165.193 -155.534)" opacity="0.1"/>
    <path id="Tracé_190" data-name="Tracé 190" d="M268.238,223.443l-10.443,8L244.36,229.18l9.047-6.68Z" transform="translate(-165.038 -154.568)" fill="#e3e8f4"/>
    <path id="Tracé_191" data-name="Tracé 191" d="M874.272,623.637h0a1.776,1.776,0,0,1,1.571.049,1.576,1.576,0,0,1,.841,1.248l.581,7.086-3.447.586L872,627.484Z" transform="translate(-633.706 -445.514)" fill="#3f3d56"/>
    <path id="Tracé_192" data-name="Tracé 192" d="M393.512,467.583l-52.759,25.18a3.364,3.364,0,0,0,.026,6.164l113.63,53.63a14.565,14.565,0,0,0,12.962-.305l47.861-25.382a3.415,3.415,0,0,0,1.85-3.115,3.449,3.449,0,0,0-2.067-2.991L396.755,467.55A3.88,3.88,0,0,0,393.512,467.583Z" transform="translate(-273.555 -336.954)" fill="#3f3d56"/>
    <path id="Tracé_193" data-name="Tracé 193" d="M340.121,536.56l-1.652,1.154-.13,5.526a2.28,2.28,0,0,0,1.324,2.094l115.572,55.777a1.816,1.816,0,0,0,1.684-.056,1.6,1.6,0,0,0,.825-1.382v-8.026Z" transform="translate(-273.277 -385.132)" fill="#3f3d56"/>
    <path id="Tracé_194" data-name="Tracé 194" d="M393.5,446.6l-52.759,25.177a3.364,3.364,0,0,0,.016,6.164l113.64,53.63a14.575,14.575,0,0,0,12.962-.305l47.861-25.385a3.415,3.415,0,0,0,1.85-3.115A3.449,3.449,0,0,0,515,499.775L396.745,446.563A3.881,3.881,0,0,0,393.5,446.6Z" transform="translate(-273.545 -322.376)" fill="#e3e8f4"/>
    <path id="Tracé_195" data-name="Tracé 195" d="M282.232,421.86,224.1,449.62,324.012,496.6l59.949-28.618Z" transform="translate(-151.354 -293.066)" fill="#3f3d56"/>
    <ellipse id="Ellipse_62" data-name="Ellipse 62" cx="6.132" cy="3.416" rx="6.132" ry="3.416" transform="translate(203.087 188.164)" fill="#3f3d56"/>
    <ellipse id="Ellipse_63" data-name="Ellipse 63" cx="0.568" cy="0.534" rx="0.568" ry="0.534" transform="translate(96.816 137.123)" fill="#3f3d56"/>
    <ellipse id="Ellipse_64" data-name="Ellipse 64" cx="0.682" cy="0.641" rx="0.682" ry="0.641" transform="translate(95.001 141.18)" fill="#3f3d56"/>
    <line id="Ligne_9" data-name="Ligne 9" y1="2.989" x2="6.814" transform="translate(98.179 137.764)" fill="none" stroke="#3f3d56" stroke-miterlimit="10" stroke-width="1"/>
    <path id="Tracé_196" data-name="Tracé 196" d="M19.174,14.707l21.879.572a6.049,6.049,0,0,1,5.907,5.733,5.321,5.321,0,0,1-5.605,5.432l-21.879-.572a6.049,6.049,0,0,1-5.907-5.733A5.321,5.321,0,0,1,19.174,14.707Z" transform="translate(115.346 161.944) rotate(-30)" fill="#6c63ff"/>
    <path id="Tracé_197" data-name="Tracé 197" d="M19.174,14.707l21.879.572a6.049,6.049,0,0,1,5.907,5.733,5.321,5.321,0,0,1-5.605,5.432l-21.879-.572a6.049,6.049,0,0,1-5.907-5.733A5.321,5.321,0,0,1,19.174,14.707Z" transform="translate(132.55 170.188) rotate(-30)" fill="#6c63ff"/>
    <path id="Tracé_198" data-name="Tracé 198" d="M19.174,14.707l21.879.572a6.049,6.049,0,0,1,5.907,5.733,5.321,5.321,0,0,1-5.605,5.432l-21.879-.572a6.049,6.049,0,0,1-5.907-5.733A5.321,5.321,0,0,1,19.174,14.707Z" transform="translate(99.764 152.481) rotate(-30)" fill="#6c63ff"/>
  </g>
</svg>
