<svg xmlns="http://www.w3.org/2000/svg" viewBox="0 0 241.94 84.46"><defs><style>.cls-1{fill:#9bc441;}.cls-2{fill:#39758c;}.cls-3{fill:#fff7ee;}</style></defs><g id="Calque_2" data-name="Calque 2"><g id="Calque_1-2" data-name="Calque 1"><g id="EWFcTS.tif"><path class="cls-1" d="M80.74,0c-2.4,5.09-4.77,10.18-7.2,15.26-.86,1.8-1.86,3.56-2.8,5.34-4,7.46-8.37,14.77-12.9,22-2.23,3.57-4.7,7-7,10.59A1.65,1.65,0,0,1,49.2,54c-6.1,0-12.2,0-18.3,0-.72,0-1-.07-1.24-.77-1.74-5.48-3.11-11-4.55-16.56-1.15-4.44-1.9-8.93-2.85-13.39-.55-2.58-.69-5.2-1-7.8-.53-3.93-.9-7.85-1.05-11.79C20.13,2.46,20,1.23,19.92,0H41.18a1.83,1.83,0,0,1,.45,1.59c0,1.58,0,3.17,0,4.75,0,5.57.45,11.12.92,16.67.39,4.52.83,9,1.67,13.71a53.7,53.7,0,0,0,4.18-7.45A186.07,186.07,0,0,0,60.31,1.81,2.93,2.93,0,0,1,61.45,0Z"/><path class="cls-1" d="M241.94,32.65c-.69,1-.39,2.2-.6,3.3a27,27,0,0,1-3.53,9.87c-3.32,5.18-8.61,8.08-15.9,9a55.9,55.9,0,0,1-10,.43c-4.86-.28-9.66-.83-13.74-3.28a11.14,11.14,0,0,1-5.55-7.54,34.14,34.14,0,0,1,.19-12,28.15,28.15,0,0,1,3.32-9.53,15.89,15.89,0,0,1,7.66-6.9,34.08,34.08,0,0,1,14.89-3.1c2.91.08,5.87-.12,8.68.56,5.33,1.29,10.52,2.76,13,7.28.76,1.39.83,2.9,1.58,4.27Z"/><path class="cls-1" d="M143.84,0c-.54,3.68-1.06,7.35-1.64,11-.61,3.83-1.47,7.65-1.89,11.5-.37,3.36-1,6.7-1.42,10.06-.46,3.84-1.32,7.66-1.88,11.5-.44,3-.78,6-1.31,9-.11.63-.23.87-1.1.87q-8.08,0-16.17,0c-1,0-1-.14-.87-1,.52-2.49.74-5,1.11-7.53s.86-5.09,1.24-7.63.7-4.94,1-7.41.67-4.78,1-7.16c.29-1.84.59-3.67.94-5.5.5-2.66.69-5.35,1.24-8,.49-2.41.74-4.85,1-7.29.09-.84.56-1.65.34-2.51Z"/><path class="cls-2" d="M218.52,63c-4.41,0-8.83-.14-13.24,0-5.53.21-11.07.08-16.6.25s-11.14.37-16.71.53c-4,.11-8,.29-12,.5-4.56.25-9.14.43-13.69.78-5.18.39-10.36.75-15.54,1.19-4.31.37-8.63.78-13,1.1-2.76.2-5.43.89-8.21,1.13-3.28.28-6.54.76-9.81,1.17-3.58.44-7.18.84-10.75,1.36-5.85.87-11.7,1.81-17.53,2.75-5,.82-10,1.62-14.87,2.85C49.21,78.52,41.57,79.92,34.22,82c-2.65.76-5.39,1.3-8,2.24-.75.28-1.38.4-1.81-.6a77.68,77.68,0,0,0-8.66-14.94,111.9,111.9,0,0,0-8.44-9.6,59.83,59.83,0,0,0-7-6.49c-.2-.16-.59-.34-.26-.61a.79.79,0,0,1,.76,0c5.28,2,10.56,3.9,15.1,6.91,3,2,6.16,3.71,8.77,6a19.32,19.32,0,0,1,3.76,3.62c.62,1,1.69,1.19,3.08.9,2.73-.57,5.61-.73,8.28-1.36,5.51-1.31,11.22-1.64,16.83-2.46,4.46-.65,9-.9,13.54-1.34,5.31-.51,10.62-1.06,15.94-1.52,2.94-.25,5.91-.34,8.86-.53,5.19-.33,10.39-.7,15.59-1,2-.12,4-.16,6-.21,3.79-.08,7.58-.28,11.37-.39s7.59-.05,11.38-.21c13-.54,26.11-.08,39.16-.23,5.54-.07,11.07.24,16.6.31,5.13.06,10.27.34,15.4.49,4,.13,8,.38,12,.51s7.94.48,11.9.74c.38,0,1-.16,1,.39s-.63.37-1,.37C229.09,63,223.8,63,218.52,63Z"/><path class="cls-1" d="M95.34,51.2c-3.29,1.3-6.43,2.7-10,3.16-4.46.56-8.82.5-12.75-1.65a7,7,0,0,1-3-3.06,17.17,17.17,0,0,1-1.71-5.86A31.46,31.46,0,0,1,70.31,28a19.87,19.87,0,0,1,6.75-9,31.36,31.36,0,0,1,12.3-4.84c7.37-1.48,14.85-.92,22.3-.94,1.86,0,3.76.22,5.65.18.93,0,1.14.3,1,.91-.42,2.33-.87,4.66-1.24,7s-.7,4.86-1,7.29c-.37,2.63-.7,5.27-1.24,7.89-.35,1.75-.46,3.52-.73,5.28-.38,2.51-.82,5-1.21,7.51-.18,1.18-.32,2.36-.4,3.54-.06.87-.43,1.26-1.66,1.24-4.68,0-9.37,0-14,0-1.69,0-2-.27-1.58-1.57C95.3,52.05,95.55,51.71,95.34,51.2Z"/><path class="cls-1" d="M174.6,37.27c-4.14,0-8.28,0-12.42,0-1.07,0-1.45.21-1.34,1.06.46,3.84,2.22,5.48,7.45,6.16s10.46-.15,15.58-1.11c.95-.18,1.17-.39.91.62-.7,2.67-1.12,5.38-1.72,8.07-.31,1.42-2,1.23-3.18,1.39-3.6.47-7.24.7-10.9.84A52.66,52.66,0,0,1,153.46,53c-6.08-1.58-9.53-5-10.56-9.83-.81-3.83-.37-7.68.21-11.53a27.67,27.67,0,0,1,3-8.82c1.86-3.53,5.08-6,9.45-7.67a38.41,38.41,0,0,1,17-2.23c6.05.49,11.55,2.13,15.06,6.46a11.48,11.48,0,0,1,2.28,6.21c.4,3.65-.46,7.24-1.35,10.82-.17.65-.58.91-1.54.9C182.87,37.24,178.73,37.27,174.6,37.27Z"/><path class="cls-3" d="M210.88,40.61c.47-5,.82-10,2.34-14.89a10.31,10.31,0,0,1,1.9-3.41,4.64,4.64,0,0,1,4.17-1.2,3.55,3.55,0,0,1,3.29,2.61,13.31,13.31,0,0,1,.51,5.23c-.34,2.29-.42,4.63-.77,6.94a33.06,33.06,0,0,1-2,8.12,5.53,5.53,0,0,1-4.87,3,4.52,4.52,0,0,1-4.18-3c-.15-.57-.15-1.16-.34-1.74A5.42,5.42,0,0,1,210.88,40.61Z"/><path class="cls-3" d="M86.62,38.86a32.24,32.24,0,0,1,1.7-10.49,9.16,9.16,0,0,1,5.43-5.92A10.73,10.73,0,0,1,98,21.84c.88,0,.79.45.74.86-.21,1.81-.43,3.61-.7,5.41s-.65,3.48-.91,5.23c-.47,3.14-.75,6.29-1.38,9.4-.3,1.46-2.25,1.73-3.77,1.95-3.34.47-5.3-.95-5.32-3.65C86.62,40.31,86.62,39.58,86.62,38.86Z"/><path class="cls-3" d="M166.84,28.79h-4.4c-.59,0-1.07,0-.85-.68a19.18,19.18,0,0,1,2.1-5.22c1.31-2,3.35-1.84,5.48-1.8a3.83,3.83,0,0,1,3.45,2.4c.64,1.56.18,3.09-.08,4.62-.09.52-.56.72-1.29.7C169.78,28.75,168.31,28.79,166.84,28.79Z"/></g></g></g></svg>